<?xml version="1.0" encoding="iso-8859-1"?>
<!-- Generator: Adobe Illustrator 24.1.2, SVG Export Plug-In . SVG Version: 6.00 Build 0)  -->
<svg version="1.1" id="Layer_1" xmlns="http://www.w3.org/2000/svg" xmlns:xlink="http://www.w3.org/1999/xlink" x="0px" y="0px"
	 viewBox="0 0 1904.881 1060.37" style="enable-background:new 0 0 1904.881 1060.37;" xml:space="preserve">
<path style="fill:#F9F7EF;" d="M1057.882,178.47c0,0-12.218-6.109-8.145-14.254c4.073-8.145,18.327-30.545,20.364-36.654
	c2.036-6.109,10.182-19.345,30.545-20.363c20.364-1.018,22.4-4.073,24.436,3.055s0,27.491-5.091,34.618
	c-5.091,7.127-18.327,23.418-20.364,28.509c-2.036,5.091-14.254,19.345-17.309,23.418c-3.054,4.073-3.054,7.127-13.236,7.127
	s-17.309,2.036-20.363-9.164C1045.664,183.561,1057.882,178.47,1057.882,178.47z"/>
<path style="fill:#F9F7EF;" d="M1132.209,173.38c0,0-1.018-20.363,11.2-27.491c12.218-7.127,25.454-16.291,37.672-15.273
	c12.218,1.018,15.273,2.036,15.273,4.073s2.036,4.073,0,11.2c-2.036,7.127-23.418,42.763-31.563,44.8s-17.309,6.109-25.454,2.036
	s-14.254-7.127-10.182-12.218C1133.227,175.416,1132.209,173.38,1132.209,173.38z"/>
<path style="fill:#F9F7EF;" d="M1092.5,210.034c12.218-4.073,18.327,0,22.4,4.073c4.073,4.073,10.182,15.273,4.073,19.345
	s-20.364,11.2-26.473,6.109s-8.145-14.254-5.091-23.418C1090.464,206.979,1092.5,210.034,1092.5,210.034z"/>
<path style="fill:#F9F7EF;" d="M1017.155,311.851c0,0-14.254-18.327-12.218-25.454c2.036-7.127,1.018-28.509,9.164-39.709
	c8.145-11.2,18.327-17.309,26.473-15.273s17.309,11.2,14.254,21.382c-3.055,10.182-11.2,9.164-6.109,18.327
	c5.091,9.164,13.236,16.291,12.218,29.527c-1.018,13.236-6.109,28.509-17.309,33.6c-11.2,5.091-15.273,11.2-22.4,3.055
	S1017.155,311.851,1017.155,311.851z"/>
<path style="fill:#F9F7EF;" d="M1095.554,282.324c0,0-5.091-10.182,8.145-15.273c13.236-5.091,19.345-7.127,24.436,0
	c5.091,7.127,3.054,11.2,3.054,11.2s9.164,5.091,4.073,11.2s-22.4,16.291-35.636,14.254c-13.236-2.036-14.254-5.091-13.236-11.2
	S1095.554,282.324,1095.554,282.324z"/>
<path style="fill:#F9F7EF;" d="M1165.808,225.306c0,0,1.018-16.291,15.273-21.382c14.255-5.091,28.509-14.254,33.6-7.127
	c5.091,7.127,11.2,14.254,6.109,20.363c-5.091,6.109-10.182,20.363-23.418,24.436c-13.236,4.073-27.491,9.164-31.563,0
	C1161.736,232.434,1165.808,225.306,1165.808,225.306z"/>
<path style="fill:#F9F7EF;" d="M1309.371,155.052c0,0,8.145,1.018,0,13.236s-17.309,19.345-29.527,23.418
	c-12.218,4.073-24.436,15.273-36.654,9.164c-12.218-6.109-13.236-15.273-11.2-22.4s30.545-34.618,39.709-36.654
	s9.164-8.145,15.273-11.2c6.109-3.055,34.618-16.291,38.691-7.127C1329.734,132.653,1309.371,155.052,1309.371,155.052z"/>
<path style="fill:#F9F7EF;" d="M495.808,222.978c0,0,8.175-0.743,2.825,12.931c-5.351,13.675-12.782,22.593-23.85,29.179
	c-11.068,6.586-20.614,20.135-33.855,16.774c-13.24-3.361-16.19-12.096-15.722-19.494c0.469-7.398,22.454-40.339,30.972-44.284
	c8.518-3.945,7.214-9.913,12.531-14.201c5.317-4.288,30.344-23.303,36.279-15.219S495.808,222.978,495.808,222.978z"/>
<path style="fill:#F9F7EF;" d="M1084.089,415.707c0,0-12.968,1.729-20.748-4.322c-7.781-6.051-13.832-25.935,0-36.309
	c13.832-10.374,30.257-29.393,44.954-25.935c14.696,3.458,26.799,17.29,25.935,25.935c-0.865,8.645,0.865,6.051,6.052,6.916
	c5.187,0.864,15.561,6.916,13.832,14.696c-1.729,7.78-9.51,19.019,0,23.341c9.51,4.322,12.103,2.593,11.239,11.238
	c-0.865,8.645-0.865,4.322,0,12.967c0.865,8.645-5.187,13.832,0,17.29c5.187,3.458,10.374,13.832,6.051,16.425
	c-4.322,2.594-11.238,7.78-10.374,16.425c0.865,8.645-21.612,13.832-30.257,11.238c-8.645-2.594-15.561,0-14.696-11.238
	c0.865-11.238,0.865-23.341-8.645-23.341s-25.935-4.322-26.799-9.509s-3.458-12.103,0-21.612
	c3.458-9.509,11.239-14.696,10.374-19.019C1090.141,416.572,1084.089,415.707,1084.089,415.707z"/>
<path style="fill:#F9F7EF;" d="M1029.191,522.395c0,0-7.127-17.309,10.182-19.345s24.436-6.109,34.618,3.055
	c10.182,9.164,16.291,9.164,14.254,19.345c-2.036,10.182-6.109,9.164-5.091,13.236c1.018,4.073,0,28.509-2.036,36.654
	s-22.4,19.345-36.654,18.327c-14.254-1.018-31.563-9.164-31.563-18.327c0-9.164,4.073-23.418,0-30.545
	S1029.191,522.395,1029.191,522.395z"/>
<path style="fill:#F9F7EF;" d="M1174.165,339.225c0,0-18.352-5.505-16.516-17.434c1.835-11.929,0-17.434,14.681-26.61
	c14.681-9.176,34.868-24.775,56.89-11.011s24.775,34.868,23.857,38.538s-7.341,9.176,0,11.929
	c7.341,2.753,11.929-1.835,13.764,10.093c1.835,11.929-12.846,22.022-11.011,30.28c1.835,8.258,10.093,11.929,3.67,21.104
	c-6.423,9.176-8.258,11.011-10.093,17.434s-22.939,18.352-33.033,17.434c-10.093-0.918-4.588-6.423-11.929-16.516
	c-7.341-10.093-22.939-22.94-23.857-32.115c-0.918-9.176,1.835-15.599,4.588-22.939c2.753-7.341,10.093-12.846,0.918-17.434
	S1174.165,339.225,1174.165,339.225z"/>
<path style="fill:#F9F7EF;" d="M1262.535,241.597c0,0-1.018-19.345,32.582-12.218c33.6,7.127,51.927,16.291,43.781,32.582
	s-19.345,24.436-37.672,17.309C1282.898,272.142,1263.553,249.743,1262.535,241.597z"/>
<path style="fill:#F9F7EF;" d="M142.544,851.483c0,0-1.018-19.345,32.582-12.218s51.927,16.291,43.781,32.582
	s-19.345,24.436-37.672,17.309C162.908,882.028,143.562,859.628,142.544,851.483z"/>
<path style="fill:#F9F7EF;" d="M1351.116,93.962c0,0-0.902,0.475-2.367,1.157c-5.322,2.48-18.078,7.706-22.069,2.915
	c-5.091-6.109-11.2-18.327,4.073-24.436s28.509-20.363,35.636-10.182s16.291,23.418,4.073,27.491
	c-12.218,4.073-21.382,3.055-21.382,3.055H1351.116z"/>
<path style="fill:#F9F7EF;" d="M1369.42,237.813c0,0-22.366-3.728-26.094-14.911c-3.728-11.183-8.387-14.911-2.796-25.162
	c5.592-10.251,14.911-14.911,15.843-21.434c0.932-6.523,7.455-13.979,17.706-11.183s16.775,15.843,24.23,16.774
	s9.319-6.523,18.638-1.864c9.319,4.66,4.66,8.387,11.183,8.387c6.523,0,18.638,6.523,20.502,18.638
	c1.864,12.115,5.592,18.638,4.66,21.434c-0.932,2.796-3.728,4.66,0,9.319s21.434,20.502,19.57,27.957
	c-1.864,7.455-14.911,23.298-20.502,21.434c-5.591-1.864-7.455-6.523-13.979-2.796c-6.523,3.728-12.115,20.502-25.162,10.251
	c-13.047-10.251-16.775-9.319-14.911-15.843c1.864-6.523-2.796-5.591-4.66-10.251c-1.864-4.66,4.66-13.979-2.796-18.638
	S1369.42,237.813,1369.42,237.813z"/>
<path style="fill:#F9F7EF;" d="M1287.989,435.05c0,0,0-16.291,5.091-27.491c5.091-11.2,8.145-10.182,4.073-18.327
	c-4.073-8.145-7.127-23.418,2.036-26.473c9.164-3.055,14.254,2.036,17.309-3.055c3.054-5.091,31.563-49.89,47.854-51.927
	s25.454-2.036,24.436,10.182s-17.309,21.382-15.273,28.509c2.036,7.127,17.309,6.109,19.345,14.254
	c2.036,8.145-25.454,27.491-21.382,31.563c4.073,4.073,11.2,13.236-7.127,24.436c-18.327,11.2-57.018,24.436-67.199,22.4
	S1287.989,435.05,1287.989,435.05z"/>
<path style="fill:#F9F7EF;" d="M1226.899,471.704c0,0,0-20.363,11.2-23.418c11.2-3.055,22.4-4.073,28.509,2.036
	s5.091,10.182,12.218,8.145c7.127-2.036,13.236-15.273,22.4-9.164s9.164,18.327,14.254,19.345c5.091,1.018,8.145-2.036,13.236,3.055
	c5.091,5.091,3.055,11.2,7.127,12.218c4.073,1.018,13.236,1.018,11.2,8.145c-2.036,7.127-10.182,15.273-22.4,13.236
	c-12.218-2.036-9.164-5.091-16.291-2.036c-7.127,3.055-12.218,10.182-20.364,9.164s-15.273,0-16.291-5.091
	c-1.018-5.091-5.091-10.182-13.236-9.164c-8.145,1.018-16.291,1.018-21.382-3.055c-5.091-4.073,0-6.109-3.055-13.236
	C1230.971,474.759,1226.899,471.704,1226.899,471.704z"/>
<path style="fill:#F9F7EF;" d="M1171.208,540.976c0,0,3.054-20.363,17.309-19.345c14.255,1.018,11.2,8.145,21.382,7.127
	c10.182-1.018,20.363-9.164,38.691-1.018s24.436,12.218,22.4,22.4c-2.036,10.182-14.254,31.563-21.382,31.563s-8.145-3.055-12.218,0
	c-4.073,3.055-9.163,7.127-18.327,5.091c-9.164-2.036-8.145-8.145-17.309-7.127s-23.418,6.109-35.636-8.145
	c-12.218-14.254-7.127-22.4-2.036-24.436C1169.172,545.049,1171.208,540.976,1171.208,540.976z"/>
<path style="fill:#F9F7EF;" d="M518.25,882.028c0,0,3.055-20.363,17.309-19.345c14.254,1.018,11.2,8.145,21.382,7.127
	c10.182-1.018,20.363-9.164,38.691-1.018c18.327,8.145,24.436,12.218,22.4,22.4c-2.036,10.182-14.254,31.563-21.382,31.563
	s-8.145-3.055-12.218,0c-4.073,3.055-9.164,7.127-18.327,5.091c-9.164-2.036-8.145-8.145-17.309-7.127
	c-9.164,1.018-23.418,6.109-35.636-8.145c-12.218-14.254-7.127-22.4-2.036-24.436C516.214,886.101,518.25,882.028,518.25,882.028z"
	/>
<path style="fill:#F9F7EF;" d="M1090.354,612.339c0,0,10.182-25.454,32.582-19.345c22.4,6.109,19.345,15.273,30.545,17.309
	c11.2,2.036,13.236-6.109,18.327,2.036c5.091,8.145,7.127,41.745-6.109,56c-13.236,14.254-33.6,23.418-43.781,24.436
	c-10.182,1.018-35.636,0-44.8-7.127c-9.164-7.127-12.218-16.291-9.164-23.418c3.055-7.127,9.164-10.182,8.145-13.236
	c-1.018-3.055-11.2-7.127-9.164-14.254s21.382-14.254,22.4-16.291C1090.354,616.412,1090.354,612.339,1090.354,612.339z"/>
<path style="fill:#F9F7EF;" d="M1112.863,908.501c0,0,3.054-26.473,14.254-24.436c11.2,2.036,12.218,23.418,11.2,28.509
	c-1.018,5.091-5.091,9.164-4.073,12.218s-2.036,7.127-8.145,7.127s-12.218,0-13.236-6.109
	C1111.845,919.701,1112.863,908.501,1112.863,908.501z"/>
<path style="fill:#F9F7EF;" d="M1135.263,831.12c0,0-11.2-18.327,0-20.363c11.2-2.036,21.382,3.055,20.363,13.236
	c-1.018,10.182,3.055,15.273-7.127,17.309C1138.318,843.338,1136.281,833.156,1135.263,831.12z"/>
<path style="fill:#F9F7EF;" d="M1160.718,859.628c0,0,0-23.418,11.2-23.418c11.2,0,7.127,5.091,9.164,9.164
	c2.036,4.073,8.145,10.182,0,16.291c-8.145,6.109-16.291,13.236-20.363,9.164C1156.645,866.756,1160.718,859.628,1160.718,859.628z"
	/>
<path style="fill:#F9F7EF;" d="M1237.081,904.428c0,0,2.036-6.109-8.145-10.182c-10.182-4.073-18.327-8.145-11.2-19.345
	s35.636-15.273,43.781-11.2s29.527,17.309,29.527,26.472c0,9.164,3.055,25.454-16.291,25.454s-24.436,0-31.563-4.073
	S1237.081,904.428,1237.081,904.428z"/>
<path style="fill:#F9F7EF;" d="M1196.354,922.755c0,0-10.182-6.109-4.073-10.182s19.345-4.073,22.4,0
	c3.055,4.073,2.036,7.127-2.036,8.145C1208.572,921.737,1196.354,922.755,1196.354,922.755z"/>
<path style="fill:#F9F7EF;" d="M1177.008,951.264c0,0,2.036-8.145,10.182-7.127s13.236,5.091,7.127,7.127
	C1188.208,953.3,1179.045,955.337,1177.008,951.264z"/>
<path style="fill:#F9F7EF;" d="M1229.953,940.064c0,0,7.127-6.109,11.2-2.036c4.073,4.073,12.218,14.254,4.073,15.273
	s-26.473,5.091-28.509,0s-5.091-15.273,4.073-14.254C1229.953,940.064,1229.953,940.064,1229.953,940.064z"/>
<path style="fill:#F9F7EF;" d="M1280.862,953.3c0,0-5.091-11.2,6.109-13.236c11.2-2.036,19.345-2.036,25.454,4.073
	c6.109,6.109,14.255,8.145,9.164,19.345c-5.091,11.2-24.436,24.436-34.618,21.382c-10.182-3.055-14.254-9.164-13.236-15.273
	C1274.753,963.482,1281.88,955.337,1280.862,953.3z"/>
<path style="fill:#F9F7EF;" d="M1171.917,770.029c0,0-10.182-1.018-14.254-4.073c-4.073-3.055-25.454-11.2-19.345-19.345
	c6.109-8.145,18.327-9.164,21.382-14.254s6.109-22.4,16.291-21.382s30.545,23.418,40.727,23.418s14.254-10.182,24.436,1.018
	s13.236,24.436,27.491,30.545c14.254,6.109,34.618,4.073,41.745,14.254c7.127,10.182,5.091,18.327-5.091,19.345
	c-10.182,1.018-21.382-1.018-20.363,3.055s7.127,20.363-9.164,25.454c-16.291,5.091-29.527,14.254-36.654,6.109
	s-12.218-27.491-20.363-24.436s-16.291,8.145-28.509,4.073c-12.218-4.073-19.345-16.291-20.363-26.473
	C1168.863,777.156,1171.917,770.029,1171.917,770.029z"/>
<path style="fill:#F9F7EF;" d="M1304.28,859.628c0,0-8.145-39.709,23.418-39.709c31.563,0,24.436-3.055,37.672,7.127
	c13.236,10.182,19.345,9.164,18.327,18.327c-1.018,9.164,2.036,14.254-5.091,19.345c-7.127,5.091-10.182,7.127-15.273,12.218
	c-5.091,5.091-15.273,10.182-28.509,10.182c-13.236,0-29.527-3.055-31.563-13.236C1301.225,863.701,1304.28,859.628,1304.28,859.628
	z"/>
<path style="fill:#F9F7EF;" d="M1460.06,894.246c0,0,14.254,17.309-10.182,22.4s-74.327-3.055-74.327-18.327
	c0-15.273,32.582-43.781,50.909-44.8c18.327-1.018,26.473,7.127,28.509,10.182s16.291,10.182,13.236,19.345
	C1465.151,892.21,1460.06,894.246,1460.06,894.246z"/>
<path style="fill:#F9F7EF;" d="M1501.806,857.592c0,0-5.091-9.164,10.182-9.164s47.854,5.091,48.872,15.273
	c1.018,10.182-2.036,27.491-16.291,29.527c-14.254,2.036-13.236,4.073-24.436,0c-11.2-4.073-14.254-1.018-21.382-7.127
	c-7.127-6.109-16.291-14.254-13.236-20.363C1488.569,859.628,1501.806,857.592,1501.806,857.592z"/>
<path style="fill:#F9F7EF;" d="M1551.696,941.082c0,0-6.109,0-3.055-6.109c3.055-6.109,20.364,1.018,19.345,8.145
	c-1.018,7.127-5.091,10.182-10.182,7.127C1552.714,947.191,1551.696,941.082,1551.696,941.082z"/>
<path style="fill:#F9F7EF;" d="M1603.623,871.846c0,0,3.054-12.218,11.2-4.073s10.182,15.273,2.036,18.327
	c-8.145,3.055-22.4,3.055-23.418-5.091S1603.623,871.846,1603.623,871.846z"/>
<path style="fill:#F9F7EF;" d="M597.668,944.137c0,0,3.055-12.218,11.2-4.073s10.182,15.273,2.036,18.327
	c-8.145,3.055-22.4,3.055-23.418-5.091S597.668,944.137,597.668,944.137z"/>
<path style="fill:#F9F7EF;" d="M1599.55,845.374c0,0-1.018,8.145-13.236,3.055c-12.218-5.091-11.2-7.127-7.127-11.2
	c4.073-4.073,8.145-4.073,14.254,0S1599.55,845.374,1599.55,845.374z"/>
<path style="fill:#F9F7EF;" d="M1637.223,837.229c0,0-6.109-4.073,0-6.109c6.109-2.036,14.254-2.036,13.236,3.055
	s-6.109,11.2-10.182,8.145C1636.204,839.265,1637.223,837.229,1637.223,837.229z"/>
<path style="fill:#F9F7EF;" d="M1634.168,861.665c0,0-5.091-5.091,0-6.109s21.382,2.036,19.345,6.109
	c-2.036,4.073-12.218,4.073-14.255,3.055C1637.223,863.701,1634.168,861.665,1634.168,861.665z"/>
<path style="fill:#F9F7EF;" d="M1709.513,850.465c0,0,8.145-1.018,7.127,3.055s-8.145,5.091-11.2,2.036
	c-3.054-3.055-3.054-5.091,0-7.127C1708.495,846.392,1709.513,850.465,1709.513,850.465z"/>
<path style="fill:#F9F7EF;" d="M9.513,1011.465c0,0,8.145-1.018,7.127,3.055s-8.145,5.091-11.2,2.036s-3.055-5.091,0-7.127
	C8.495,1007.392,9.513,1011.465,9.513,1011.465z"/>
<path style="fill:#F9F7EF;" d="M1818.457,136.725c0,0,14.255,17.309-10.182,22.4s-74.327-3.055-74.327-18.327
	s32.582-43.781,50.909-44.8c18.327-1.018,26.473,7.127,28.509,10.182s16.291,10.182,13.236,19.345
	C1823.548,134.689,1818.457,136.725,1818.457,136.725z"/>
<path style="fill:#F9F7EF;" d="M1695.258,59.344c0,0-5.091-9.164,10.182-9.164s47.854,5.091,48.872,15.273
	s-2.036,27.491-16.291,29.527s-13.236,4.073-24.436,0c-11.2-4.073-14.254-1.018-21.382-7.127s-16.291-14.254-13.236-20.363
	C1682.022,61.381,1695.258,59.344,1695.258,59.344z"/>
<path style="fill:#F9F7EF;" d="M411.706,463.651c0,0-4.924-8.366,9.849-8.366c14.773,0,46.288,4.648,47.273,13.943
	c0.985,9.295-1.97,25.098-15.758,26.957c-13.788,1.859-12.803,3.718-23.636,0s-13.788-0.93-20.682-6.507
	s-15.758-13.014-12.803-18.591S411.706,463.651,411.706,463.651z"/>
<path style="fill:#F9F7EF;" d="M1843.912,146.907c0,0-6.109,0-3.054-6.109c3.054-6.109,20.363,1.018,19.345,8.145
	s-5.091,10.182-10.182,7.127C1844.93,153.016,1843.912,146.907,1843.912,146.907z"/>
<path style="fill:#F9F7EF;" d="M1865.293,109.235c0,0,3.054-12.218,11.2-4.073s10.182,15.273,2.036,18.327s-22.4,3.055-23.418-5.091
	S1865.293,109.235,1865.293,109.235z"/>
<path style="fill:#F9F7EF;" d="M1841.875,18.617c0,0-1.018,8.145-13.236,3.055c-12.218-5.091-11.2-7.127-7.127-11.2
	c4.073-4.073,8.145-4.073,14.254,0S1841.875,18.617,1841.875,18.617z"/>
<path style="fill:#F9F7EF;" d="M1879.548,10.472c0,0-6.109-4.073,0-6.109s14.254-2.036,13.236,3.055s-6.109,11.2-10.182,8.145
	C1878.53,12.508,1879.548,10.472,1879.548,10.472z"/>
<path style="fill:#F9F7EF;" d="M1876.493,34.908c0,0-5.091-5.091,0-6.109c5.091-1.018,21.382,2.036,19.345,6.109
	s-12.218,4.073-14.254,3.055C1879.548,36.944,1876.493,34.908,1876.493,34.908z"/>
<path style="fill:#F9F7EF;" d="M1892.784,71.562c0,0,8.145-1.018,7.127,3.055s-8.145,5.091-11.2,2.036
	c-3.055-3.055-3.055-5.091,0-7.127C1891.766,67.49,1892.784,71.562,1892.784,71.562z"/>
<path style="fill:#F9F7EF;" d="M1468.206,809.738c0,0-26.473,17.309-29.527,10.182c-3.055-7.127,6.109-15.273,5.091-23.418
	s-6.109-13.236,2.036-14.254c8.145-1.018,15.273,5.091,18.327,3.055c3.054-2.036-11.2-11.2-2.036-13.236
	c9.164-2.036,14.254,7.127,26.473,10.182c12.218,3.055,33.6,0,39.709,11.2s11.2,16.291,0,22.4
	c-11.2,6.109-32.582,7.127-41.745,4.073C1477.369,816.865,1468.206,809.738,1468.206,809.738z"/>
<path style="fill:#F9F7EF;" d="M1371.479,793.447c0,0-17.309-7.127-6.109-19.345c11.2-12.218,14.254-18.327,27.491-15.273
	c13.236,3.055,18.327-1.018,24.436,6.109c6.109,7.127,10.182,4.073,7.127,11.2c-3.055,7.127-7.127,1.018-6.109,11.2
	c1.018,10.182,5.091,16.291-7.127,19.345c-12.218,3.055-26.473-4.073-30.545-7.127
	C1376.57,796.502,1371.479,793.447,1371.479,793.447z"/>
<path style="fill:#F9F7EF;" d="M1297.153,735.411c0,0-8.145-35.636,5.091-40.727c13.236-5.091,14.254-8.145,20.363-15.273
	s6.109-16.291,18.327-12.218c12.218,4.073,6.109,4.073,15.273,14.254c9.164,10.182,19.345,7.127,19.345,19.345
	s0,40.727-7.127,45.818c-7.127,5.091-10.182,3.055-10.182,3.055s-7.127,8.145-18.327,8.145s-27.491-1.018-34.618-8.145
	C1298.171,742.538,1297.153,735.411,1297.153,735.411z"/>
<path style="fill:#F9F7EF;" d="M1275.771,662.103c0,0,13.236-18.327,9.164-25.454c-4.073-7.127-13.236-19.345-23.418-17.309
	c-10.182,2.036-3.055-6.109-15.273-6.109c-12.218,0-41.745,12.218-45.818,31.563c-4.073,19.345-5.091,36.654,5.091,45.818
	c10.182,9.164,17.309,3.055,23.418,11.2c6.109,8.145,15.273,7.127,22.4,4.073c7.127-3.055,25.454-2.036,27.491-9.164
	C1280.862,689.593,1278.826,667.194,1275.771,662.103z"/>
<path style="fill:#F9F7EF;" d="M1300.207,610.176c0,0,8.145-9.164,23.418-8.145s10.182,9.164,20.363,8.145
	c10.182-1.018,5.091-9.164,17.309-4.073c12.218,5.091,6.109,9.164,14.255,14.254c8.145,5.091,22.4,7.127,18.327,17.309
	c-4.073,10.182-23.418,15.273-28.509,12.218c-5.091-3.055-4.073-6.109-13.236-5.091c-9.163,1.018-36.654-4.073-39.709-8.145
	c-3.054-4.073-10.182-4.073-12.218-10.182C1298.171,620.358,1300.207,610.176,1300.207,610.176z"/>
<path style="fill:#F9F7EF;" d="M375.706,860.647c0,0,8.145-9.164,23.418-8.145c15.273,1.018,10.182,9.164,20.363,8.145
	c10.182-1.018,5.091-9.164,17.309-4.073c12.218,5.091,6.109,9.164,14.254,14.254s22.4,7.127,18.327,17.309
	c-4.073,10.182-23.418,15.273-28.509,12.218c-5.091-3.055-4.073-6.109-13.236-5.091c-9.164,1.018-36.654-4.073-39.709-8.145
	c-3.055-4.073-10.182-4.073-12.218-10.182C373.67,870.828,375.706,860.647,375.706,860.647z"/>
<path style="fill:#F9F7EF;" d="M1494.678,757.811c0,0-1.018-8.145,8.145-8.145s11.2,3.055,15.273,4.073
	c4.073,1.018,11.2,5.091,8.145,9.164s-12.218,7.127-20.363,6.109S1494.678,757.811,1494.678,757.811z"/>
<path style="fill:#F9F7EF;" d="M580.359,999.118c0,0-1.018-8.145,8.145-8.145s11.2,3.055,15.273,4.073
	c4.073,1.018,11.2,5.091,8.145,9.164s-12.218,7.127-20.363,6.109S580.359,999.118,580.359,999.118z"/>
<path style="fill:#F9F7EF;" d="M1432.57,742.538c0,0-8.145-10.182,2.036-21.382c10.182-11.2,34.618-10.182,36.654-4.073
	c2.036,6.109,8.145,6.109,6.109,14.254s-11.2,23.418-18.327,23.418s-5.091-1.018-14.254-3.055
	C1435.624,749.666,1432.57,742.538,1432.57,742.538z"/>
<path style="fill:#F9F7EF;" d="M1504.86,726.248c1.018-1.018-3.055-12.218,11.2-10.182c14.255,2.036,20.364,2.036,20.364,8.145
	c0,6.109,0,6.109-9.164,9.164c-9.164,3.055-15.273,3.055-16.291,0C1509.951,730.32,1504.86,726.248,1504.86,726.248z"/>
<path style="fill:#F9F7EF;" d="M1384.716,44.072c0,0,38.691-19.345,57.018-14.254c18.327,5.091,17.309,2.036,31.563,1.018
	c14.254-1.018,35.636,0,36.654,13.236s-3.055,34.618-26.473,30.545s-15.273-12.218-33.6-9.164
	c-18.327,3.055-24.436,15.273-41.745,9.164c-17.309-6.109-28.509-10.182-27.491-18.327S1384.716,44.072,1384.716,44.072z"/>
<path style="fill:#F9F7EF;" d="M1431.552,88.871c0,0,3.054,6.109,20.363,7.127s19.345-7.127,28.509,6.109s14.254,33.6-4.073,40.727
	s-34.618,6.109-44.8,3.055c-10.182-3.055-34.618-25.454-31.563-39.709C1403.043,91.926,1412.206,84.798,1431.552,88.871z"/>
<path style="fill:#F9F7EF;" d="M1509.951,138.762c0,0-2.036-18.327,12.218-28.509c14.254-10.182,40.727-15.273,47.854-8.145
	c7.127,7.127,20.363,4.073,12.218,18.327s-26.473,32.582-44.8,31.563c-18.327-1.018-23.418-3.055-24.436-7.127
	S1509.951,138.762,1509.951,138.762z"/>
<path style="fill:#F9F7EF;" d="M1598.532,67.49c0,0-1.018-16.291,8.145-15.273s15.273,3.055,13.236,7.127
	c-2.036,4.073-3.055,14.254-10.182,14.254s-9.164,0-11.2-2.036C1596.496,69.526,1598.532,67.49,1598.532,67.49z"/>
<path style="fill:#F9F7EF;" d="M1635.186,87.853c0,0,0-9.164,7.127-8.145s11.2,3.055,6.109,8.145
	c-5.091,5.091-7.127,8.145-13.236,5.091S1635.186,87.853,1635.186,87.853z"/>
<path style="fill:#F9F7EF;" d="M1606.677,102.107c0,0-3.054-8.145,5.091-8.145s10.182,6.109,8.145,12.218
	c-2.036,6.109-10.182,10.182-14.255,7.127C1601.587,110.253,1601.587,103.126,1606.677,102.107z"/>
<path style="fill:#F9F7EF;" d="M1496.715,234.47c0,0-10.182,0-10.182-22.4s-10.182-44.8,10.182-42.763
	c20.363,2.036,23.418,6.109,33.6,6.109c10.182,0,10.182-3.055,14.254,3.055c4.073,6.109,21.382,16.291,18.327,24.436
	c-3.055,8.145-5.091,27.491-15.273,31.563c-10.182,4.073-32.582,10.182-40.727,7.127S1496.715,234.47,1496.715,234.47z"/>
<path style="fill:#F9F7EF;" d="M1660.641,157.089c-1.018-2.036-23.418-15.273-5.091-31.563
	c18.327-16.291,36.654-13.236,39.709-7.127c3.055,6.109,17.309,17.309,13.236,33.6c-4.073,16.291-8.145,20.363-18.327,21.382
	s-17.309,1.018-22.4-6.109C1662.677,160.143,1660.641,157.089,1660.641,157.089z"/>
<path style="fill:#F9F7EF;" d="M1602.605,222.252c0,0-19.345-17.309-14.254-33.6c5.091-16.291,5.091-23.418,20.363-24.436
	s30.545-2.036,37.672,7.127c7.127,9.164,6.109,11.2,15.273,14.254c9.163,3.055,13.236,12.218,17.309,17.309
	c4.073,5.091,14.255,12.218,7.127,21.382c-7.127,9.164-8.145,19.345-29.527,15.273c-21.382-4.073-17.309-4.073-32.582-8.145
	S1602.605,222.252,1602.605,222.252z"/>
<path style="fill:#F9F7EF;" d="M1491.624,294.542c0,0,18.327-28.509,62.109-35.636c43.781-7.127,49.891-15.273,63.127-4.073
	c13.236,11.2,22.4,10.182,14.254,20.363s-22.4,18.327-29.527,24.436s-18.327,12.218-34.618,12.218s-16.291,5.091-26.473,4.073
	c-10.182-1.018-40.727-3.055-45.818-9.164S1491.624,294.542,1491.624,294.542z"/>
<path style="fill:#F9F7EF;" d="M1407.115,407.559c0,0-6.109-14.254,9.164-28.509c15.273-14.254,50.909-46.836,75.345-45.818
	c24.436,1.018,42.763-1.018,43.781,13.236s-10.182,30.545-19.345,33.6c-9.164,3.055-6.109,2.036-5.091,4.073
	s16.291,16.291,4.073,21.382c-12.218,5.091-25.454,4.073-27.491,9.164c-2.036,5.091,3.054,13.236-8.145,16.291
	c-11.2,3.055-31.563,0-44.8-2.036C1421.37,426.905,1407.115,407.559,1407.115,407.559z"/>
<path style="fill:#F9F7EF;" d="M1718.677,211.052c0,0,4.073-39.709,22.4-37.672s44.8,29.527,42.763,37.672
	c-2.036,8.145,3.054,9.164,3.054,23.418s3.055,24.436-9.164,24.436c-12.218,0-40.727,1.018-49.891-13.236
	C1718.677,231.415,1718.677,211.052,1718.677,211.052z"/>
<path style="fill:#F9F7EF;" d="M1814.385,236.506c0,0-3.055-22.4,14.254-24.436s36.654,1.018,36.654,8.145s9.163,11.2,4.073,16.291
	s-3.055,20.363-15.273,22.4C1841.875,260.942,1820.494,253.815,1814.385,236.506z"/>
<path style="fill:#F9F7EF;" d="M1776.712,310.833c0,0-24.436-27.491,9.164-32.582c33.6-5.091,43.781,2.036,47.854,16.291
	c4.073,14.254,19.345,34.618,3.055,40.727s-31.563,10.182-44.8-2.036C1778.749,321.015,1776.712,310.833,1776.712,310.833z"/>
<path style="fill:#F9F7EF;" d="M1670.822,276.215c0,0,8.145-18.327,24.436-14.254s10.182,12.218,17.309,14.254
	s17.309,5.091,12.218,16.291c-5.091,11.2-21.382,23.418-36.654,23.418s-33.6-2.036-35.636-17.309
	C1650.459,283.342,1670.822,276.215,1670.822,276.215z"/>
<path style="fill:#F9F7EF;" d="M419.822,321.215c0,0,8.145-18.327,24.436-14.254s10.182,12.218,17.309,14.254
	c7.127,2.036,17.309,5.091,12.218,16.291c-5.091,11.2-21.382,23.418-36.654,23.418c-15.273,0-33.6-2.036-35.636-17.309
	C399.459,328.342,419.822,321.215,419.822,321.215z"/>
<path style="fill:#F9F7EF;" d="M661.813,929.882c0,0,8.145-18.327,24.436-14.254s10.182,12.218,17.309,14.254
	c7.127,2.036,17.309,5.091,12.218,16.291c-5.091,11.2-21.382,23.418-36.654,23.418c-15.273,0-33.6-2.036-35.636-17.309
	C641.449,937.01,661.813,929.882,661.813,929.882z"/>
<path style="fill:#F9F7EF;" d="M1688.131,357.669c0,0-2.036-15.273,16.291-16.291c18.327-1.018,25.454-1.018,25.454,5.091
	s-11.2,20.363-25.454,20.363C1690.168,366.832,1690.168,365.814,1688.131,357.669z"/>
<path style="fill:#F9F7EF;" d="M435.131,555.669c0,0-2.036-15.273,16.291-16.291c18.327-1.018,25.454-1.018,25.454,5.091
	c0,6.109-11.2,20.363-25.454,20.363S437.168,563.814,435.131,555.669z"/>
<path style="fill:#F9F7EF;" d="M1553.732,409.596c0,0-13.236,1.018-11.2-16.291s8.145-34.618,37.672-42.763
	c29.527-8.145,73.308-14.254,75.345,0c2.036,14.254-16.291,26.473-31.563,29.527c-15.273,3.055,15.273-7.127,22.4,7.127
	c7.127,14.254,9.164,22.4-4.073,27.491c-13.236,5.091-68.218,4.073-75.345,4.073S1553.732,409.596,1553.732,409.596z"/>
<path style="fill:#F9F7EF;" d="M1652.495,430.977c0,0,34.618-27.491,56-31.563c21.382-4.073,35.636-5.091,34.618,7.127
	c-1.018,12.218-23.418,23.418-20.364,25.454s15.273-5.091,15.273,7.127s-10.182,27.491-36.654,29.527
	c-26.473,2.036-49.891,3.055-58.036-14.254C1635.186,437.086,1652.495,430.977,1652.495,430.977z"/>
<path style="fill:#F9F7EF;" d="M1766.531,372.942c0,0,4.073-12.218,17.309-8.145c13.236,4.073,15.273,6.109,14.254,11.2
	c-1.018,5.091-6.109,10.182-15.273,10.182s-13.236,1.018-14.255-3.055C1767.549,379.051,1766.531,372.942,1766.531,372.942z"/>
<path style="fill:#F9F7EF;" d="M71.272,714.03c0,0,4.073-12.218,17.309-8.145s15.273,6.109,14.254,11.2
	c-1.018,5.091-6.109,10.182-15.273,10.182s-13.236,1.018-14.254-3.055S71.272,714.03,71.272,714.03z"/>
<path style="fill:#F9F7EF;" d="M1812.348,383.123c0,0,3.055-5.091,9.164-5.091s10.182,3.055,10.182,5.091s-2.036,7.127-10.182,7.127
	S1812.348,383.123,1812.348,383.123z"/>
<path style="fill:#F9F7EF;" d="M1809.294,412.65c0,0,3.055-6.109,12.218-4.073s9.164,6.109,7.127,8.145s-4.073,3.055-9.164,2.036
	C1814.385,417.741,1809.294,412.65,1809.294,412.65z"/>
<path style="fill:#F9F7EF;" d="M0,722.175c0,0,3.055-6.109,12.218-4.073c9.164,2.036,9.164,6.109,7.127,8.145
	c-2.036,2.036-4.073,3.055-9.164,2.036S0,722.175,0,722.175z"/>
<path style="fill:#F9F7EF;" d="M1772.64,423.85c0,0,2.036-8.145,10.182-5.091c8.145,3.055,17.309,8.145,13.236,14.254
	c-4.073,6.109-5.091,12.218-11.2,9.164c-6.109-3.055-17.309-4.073-16.291-9.164C1769.585,427.923,1772.64,423.85,1772.64,423.85z"/>
<path style="fill:#F9F7EF;" d="M1858.166,430.977c0,0-3.054-10.182,6.109-10.182s11.2,1.018,14.254,5.091s6.109,2.036,6.109,9.164
	c0,7.127,1.018,14.254-8.145,13.236c-9.164-1.018-11.2-4.073-15.273-8.145C1857.148,436.068,1858.166,430.977,1858.166,430.977z"/>
<path style="fill:#F9F7EF;" d="M49.89,761.884c0,0-3.055-10.182,6.109-10.182s11.2,1.018,14.254,5.091s6.109,2.036,6.109,9.164
	c0,7.127,1.018,14.254-8.145,13.236c-9.164-1.018-11.2-4.073-15.273-8.145S49.89,761.884,49.89,761.884z"/>
<path style="fill:#F9F7EF;" d="M1888.711,454.395c0,0,3.054-6.109,8.145-3.055c5.091,3.055,11.2,10.182,6.109,11.2
	c-5.091,1.018-8.145,4.073-11.2,0C1888.711,458.468,1888.711,454.395,1888.711,454.395z"/>
<path style="fill:#F9F7EF;" d="M1839.839,466.613c0,0,5.091-3.055,11.2,0c6.109,3.055,12.218,12.218,7.127,15.273
	c-5.091,3.055-12.218,2.036-14.254-3.055C1841.875,473.741,1839.839,466.613,1839.839,466.613z"/>
<path style="fill:#F9F7EF;" d="M1878.53,487.995c1.018-4.073,9.164-6.109,12.218,0c3.055,6.109,7.127,8.145,2.036,9.164
	C1887.693,498.177,1878.53,487.995,1878.53,487.995z"/>
<path style="fill:#F9F7EF;" d="M1863.257,505.304c3.054-4.073,11.2-6.109,12.218,0s-2.036,8.145-6.109,7.127
	C1865.293,511.413,1863.257,505.304,1863.257,505.304z"/>
<path style="fill:#F9F7EF;" d="M1786.894,485.959c0,0-5.091-10.182,11.2-6.109s40.727,29.527,38.691,37.672
	c-2.036,8.145-5.091,5.091-7.127,12.218c-2.036,7.127-41.745-3.055-46.836-8.145c-5.091-5.091-17.309-14.254-11.2-24.436
	S1786.894,485.959,1786.894,485.959z"/>
<path style="fill:#F9F7EF;" d="M1377.588,464.577c0,0-6.109-12.218,2.036-16.291s6.109,1.018,10.182-2.036
	c4.073-3.055,11.2-7.127,19.345-3.055s4.073,4.073,17.309,5.091c13.236,1.018,22.4-3.055,27.491,0
	c5.091,3.055,10.182-4.073,16.291,5.091c6.109,9.164,4.073,20.363,13.236,25.454c9.164,5.091,22.4,4.073,15.273,12.218
	c-7.127,8.145-7.127,12.218-15.273,12.218s-9.164-6.109-13.236,0c-4.073,6.109-4.073,9.164-12.218,9.164s-12.218-9.164-21.382-9.164
	s-32.582-1.018-37.672-4.073c-5.091-3.055-10.182-11.2-9.164-15.273s1.018-10.182-3.055-14.254
	C1382.679,465.595,1377.588,464.577,1377.588,464.577z"/>
<path style="fill:#F9F7EF;" d="M1558.823,495.122c0,0-24.436,0-23.418-11.2c1.018-11.2,3.055-25.454,14.254-28.509
	c11.2-3.055,9.164-7.127,25.454-5.091s8.145-3.055,19.345,0c11.2,3.055,21.382,8.145,24.436,17.309
	c3.054,9.164,22.4,13.236,22.4,23.418s2.036,25.454-10.182,25.454c-12.218,0-18.327,5.091-25.454-4.073
	c-7.127-9.164-15.273-14.254-24.436-15.273C1572.059,496.141,1558.823,495.122,1558.823,495.122z"/>
<path style="fill:#F9F7EF;" d="M1320.571,541.958c0,0,14.255-17.309,37.672-10.182s26.472,14.254,29.527,20.363
	c3.055,6.109,24.436,11.2,18.327,21.382c-6.109,10.182-18.327,11.2-19.345,8.145s-3.054-8.145-8.145-6.109
	c-5.091,2.036-16.291,4.073-25.454,2.036c-9.164-2.036-22.4,2.036-28.509-2.036s-10.182-13.236-10.182-19.345
	C1314.462,550.104,1320.571,541.958,1320.571,541.958z"/>
<path style="fill:#F9F7EF;" d="M1443.77,567.413c0,0-19.345-20.363-7.127-27.491c12.218-7.127,16.291-3.055,27.491,2.036
	c11.2,5.091,28.509,1.018,33.6,14.254c5.091,13.236,3.054,23.418-7.127,25.454c-10.182,2.036-25.454,1.018-34.618-4.073
	S1443.77,567.413,1443.77,567.413z"/>
<path style="fill:#F9F7EF;" d="M69.236,831.12c0,0-19.345-20.363-7.127-27.491c12.218-7.127,16.291-3.055,27.491,2.036
	s28.509,1.018,33.6,14.254c5.091,13.236,3.055,23.418-7.127,25.454c-10.182,2.036-25.454,1.018-34.618-4.073
	C72.29,836.21,69.236,831.12,69.236,831.12z"/>
<path style="fill:#F9F7EF;" d="M458.178,957.373c0,0-19.345-20.363-7.127-27.491c12.218-7.127,16.291-3.055,27.491,2.036
	c11.2,5.091,28.509,1.018,33.6,14.254c5.091,13.236,3.055,23.418-7.127,25.454c-10.182,2.036-25.454,1.018-34.618-4.073
	C461.232,962.464,458.178,957.373,458.178,957.373z"/>
<path style="fill:#F9F7EF;" d="M397.072,217.78c0,0,13.418-15.509,19.468-7.139s3.381,11.62,0.48,20.122
	c-2.901,8.501,1.293,20.789-7.963,25.432s-16.799,3.889-19.005-3.364c-2.206-7.253-2.555-18.424,0.491-25.446
	S397.072,217.78,397.072,217.78z"/>
<path style="fill:#F9F7EF;" d="M1790.967,63.417c0,0-19.345-20.363-7.127-27.491c12.218-7.127,16.291-3.055,27.491,2.036
	c11.2,5.091,28.509,1.018,33.6,14.254s3.055,23.418-7.127,25.454s-25.454,1.018-34.618-4.073S1790.967,63.417,1790.967,63.417z"/>
<path style="fill:#F9F7EF;" d="M1542.532,582.685c0,0-24.436-26.473-9.164-37.672s40.727-15.273,51.927-9.164
	c11.2,6.109-3.055,10.182,20.363,9.164c23.418-1.018,26.473-11.2,41.745,1.018s24.436,17.309,22.4,34.618
	c-2.036,17.309-10.182,32.582-20.364,32.582s-10.182,7.127-17.309,13.236c-7.127,6.109-32.582,9.164-43.781,7.127
	c-11.2-2.036-18.327,1.018-22.4,1.018c-4.073,0-34.618-8.145-37.672-19.345c-3.055-11.2-6.109-13.236,0-23.418
	C1534.387,581.667,1542.532,582.685,1542.532,582.685z"/>
<path style="fill:#F9F7EF;" d="M1407.115,619.339c0,0-5.091-9.164,2.036-13.236c7.127-4.073,21.382-3.055,25.454,6.109
	c4.073,9.164,2.036,12.218,9.164,14.254c7.127,2.036,15.273,2.036,12.218,8.145c-3.055,6.109-12.218,10.182-18.327,7.127
	s-3.055-8.145-14.254-11.2C1412.206,627.485,1407.115,619.339,1407.115,619.339z"/>
<path style="fill:#F9F7EF;" d="M1462.097,602.031c0,0,7.127-7.127,15.273-3.055s19.345,8.145,17.309,14.254
	c-2.036,6.109-4.073,9.164-13.236,8.145c-9.164-1.018-12.218-3.055-15.273-8.145C1463.115,608.14,1462.097,602.031,1462.097,602.031
	z"/>
<path style="fill:#F9F7EF;" d="M1392.861,677.375c0,0,1.018-5.091,9.164-5.091s11.2,0,13.236,7.127
	c2.036,7.127,9.164,5.091,2.036,11.2c-7.127,6.109-15.273,0-19.345-2.036C1393.879,686.539,1392.861,677.375,1392.861,677.375z"/>
<path style="fill:#F9F7EF;" d="M534.541,1003.191c0,0,1.018-5.091,9.164-5.091s11.2,0,13.236,7.127
	c2.036,7.127,9.164,5.091,2.036,11.2c-7.127,6.109-15.273,0-19.345-2.036C535.559,1012.354,534.541,1003.191,534.541,1003.191z"/>
<path style="fill:#F9F7EF;" d="M1432.57,685.521c0,0,4.073-7.127,9.163-6.109c5.091,1.018,14.255,5.091,12.218,10.182
	c-2.036,5.091-3.055,6.109-10.182,4.073C1436.642,691.63,1432.57,685.521,1432.57,685.521z"/>
<path style="fill:#F9F7EF;" d="M544.723,967.555c0,0,4.073-7.127,9.164-6.109c5.091,1.018,14.254,5.091,12.218,10.182
	c-2.036,5.091-3.055,6.109-10.182,4.073C548.795,973.664,544.723,967.555,544.723,967.555z"/>
<path style="fill:#F9F7EF;" d="M1465.151,666.175c0,0-5.091-12.218,15.273-11.2c20.363,1.018,20.363-3.055,26.472,5.091
	c6.109,8.145,9.164,15.273,4.073,19.345s-10.182,8.145-22.4,5.091c-12.218-3.055-25.454-10.182-24.436-14.254
	S1465.151,666.175,1465.151,666.175z"/>
<path style="fill:#F9F7EF;" d="M408.287,972.646c0,0-5.091-12.218,15.273-11.2s20.363-3.055,26.473,5.091s9.164,15.273,4.073,19.345
	c-5.091,4.073-10.182,8.145-22.4,5.091c-12.218-3.055-25.454-10.182-24.436-14.254C408.287,972.646,408.287,972.646,408.287,972.646
	z"/>
<path style="fill:#F9F7EF;" d="M1538.46,664.139c0,0,26.472-9.164,34.618-3.055c8.145,6.109,8.145,8.145,13.236,9.164
	c5.091,1.018,5.091,11.2,0,15.273c-5.091,4.073,0,10.182-16.291,6.109s-30.545-8.145-31.563-15.273
	C1537.442,669.23,1538.46,664.139,1538.46,664.139z"/>
<path style="fill:#F9F7EF;" d="M1572.059,747.629c0,0-12.218-13.236,7.127-19.345c19.345-6.109,10.182-10.182,31.563-8.145
	c21.382,2.036,52.945-4.073,59.054,10.182c6.109,14.254,13.236,24.436,3.054,27.491c-10.182,3.055-22.4,4.073-19.345,6.109
	c3.054,2.036,14.254-4.073,16.291,5.091c2.036,9.164-7.127,25.454-16.291,27.491c-9.164,2.036-5.091-4.073-13.236-3.055
	s-9.164,4.073-18.327,3.055c-9.163-1.018-59.054-14.254-61.09-24.436c-2.036-10.182,0-7.127,0-12.218
	S1570.023,747.629,1572.059,747.629z"/>
<path style="fill:#F9F7EF;" d="M1677.95,531.777c0,0,3.054-3.055,5.091-8.145s3.055-22.4,14.254-22.4c11.2,0,33.6,4.073,37.672,11.2
	c4.073,7.127,17.309,7.127,28.509,17.309c11.2,10.182,5.091,11.2,15.273,14.254s10.182,20.363,2.036,28.509
	s-16.291,18.327-26.473,17.309s-16.291-7.127-27.491-2.036c-11.2,5.091-13.236,17.309-23.418,4.073
	c-10.182-13.236-6.109-12.218-6.109-23.418s2.036-16.291-5.091-22.4C1685.077,539.922,1679.986,538.904,1677.95,531.777z"/>
<path style="fill:#F9F7EF;" d="M1786.894,618.321c0,0,4.073-9.164,16.291-9.164c12.218,0,21.382,4.073,26.473,9.164
	s13.236,1.018,10.182,10.182c-3.055,9.164-11.2,19.345-32.582,18.327c-21.382-1.018-39.709-7.127-37.672-18.327
	C1771.621,617.303,1786.894,618.321,1786.894,618.321z"/>
<path style="fill:#F9F7EF;" d="M1623.986,676.357c0,0,15.273-22.4,27.491-21.382c12.218,1.018,8.145,0,16.291,4.073
	s12.218,9.164,10.182,17.309c-2.036,8.145,3.054,16.291-14.255,18.327c-17.309,2.036-27.491,5.091-34.618-5.091
	C1621.95,679.412,1623.986,676.357,1623.986,676.357z"/>
<path style="fill:#F9F7EF;" d="M1717.658,652.939c0,0,2.036-8.145,20.363-10.182c18.327-2.036,27.491-7.127,31.563,5.091
	c4.073,12.218-5.091,26.472-18.327,28.509c-13.236,2.036-39.709-3.055-42.763-10.182
	C1705.44,659.048,1717.658,652.939,1717.658,652.939z"/>
<path style="fill:#F9F7EF;" d="M1794.021,672.284c0,0-1.018-12.218,7.127-11.2c8.145,1.018,7.127,3.055,14.255,5.091
	c7.127,2.036,13.236-5.091,14.254,2.036c1.018,7.127,0,16.291-13.236,18.327c-13.236,2.036-20.364-3.055-22.4-7.127
	C1791.985,675.339,1794.021,672.284,1794.021,672.284z"/>
<path style="fill:#F9F7EF;" d="M1693.222,726.248c0,0-4.073-8.145,12.218-13.236c16.291-5.091,31.563-1.018,30.545,3.055
	c-1.018,4.073,7.127,11.2-4.073,14.254c-11.2,3.055-22.4,8.145-32.582,3.055C1689.149,728.284,1693.222,726.248,1693.222,726.248z"
	/>
<path style="fill:#F9F7EF;" d="M1755.331,710.975c0,0,0-11.2,17.309-11.2s31.563-3.055,32.582,6.109
	c1.018,9.164,2.036,21.382-12.218,20.363C1778.749,725.229,1762.458,720.139,1755.331,710.975z"/>
<path style="fill:#F9F7EF;" d="M1703.404,759.847c0,0,1.018-12.218,18.327-10.182c17.309,2.036,17.309,4.073,17.309,12.218
	s2.036,11.2-7.127,12.218c-9.164,1.018-15.273,0-23.418-6.109C1700.349,761.884,1703.404,759.847,1703.404,759.847z"/>
<path style="fill:#F9F7EF;" d="M1783.84,765.956c0-2.036,2.036-6.109,6.109-4.073c4.073,2.036,8.145,6.109,3.054,7.127
	C1787.912,770.029,1783.84,765.956,1783.84,765.956z"/>
<path style="fill:#F9F7EF;" d="M1722.749,793.447c0,0,7.127-6.109,11.2-4.073c4.073,2.036,12.218,12.218,8.145,13.236
	c-4.073,1.018-12.218,1.018-15.273-3.055C1723.767,795.483,1722.749,793.447,1722.749,793.447z"/>
<path style="fill:#F9F7EF;" d="M943.839,872.772c0,0,12.218,6.109,8.145,14.254s-18.327,30.545-20.363,36.654
	c-2.036,6.109-10.182,19.345-30.545,20.363s-22.4,4.073-24.436-3.055c-2.036-7.127,0-27.491,5.091-34.618
	c5.091-7.127,18.327-23.418,20.363-28.509c2.036-5.091,14.254-19.345,17.309-23.418c3.055-4.073,3.055-7.127,13.236-7.127
	c10.182,0,17.309-2.036,20.363,9.164C956.057,867.681,943.839,872.772,943.839,872.772z"/>
<path style="fill:#F9F7EF;" d="M869.512,877.863c0,0,1.018,20.363-11.2,27.491c-12.218,7.127-25.454,16.291-37.672,15.273
	s-15.273-2.036-15.273-4.073c0-2.036-2.036-4.073,0-11.2c2.036-7.127,23.418-42.763,31.563-44.8
	c8.145-2.036,17.309-6.109,25.454-2.036s14.254,7.127,10.182,12.218S869.512,877.863,869.512,877.863z"/>
<path style="fill:#F9F7EF;" d="M909.221,841.208c-12.218,4.073-18.327,0-22.4-4.073s-10.182-15.273-4.073-19.345
	c6.109-4.073,20.363-11.2,26.472-6.109c6.109,5.091,8.145,14.254,5.091,23.418C911.257,844.263,909.221,841.208,909.221,841.208z"/>
<path style="fill:#F9F7EF;" d="M984.565,739.391c0,0,14.254,18.327,12.218,25.454c-2.036,7.127-1.018,28.509-9.164,39.709
	s-18.327,17.309-26.473,15.273c-8.145-2.036-17.309-11.2-14.254-21.382c3.055-10.182,11.2-9.164,6.109-18.327
	c-5.091-9.164-13.236-16.291-12.218-29.527c1.018-13.236,6.109-28.509,17.309-33.6c11.2-5.091,15.273-11.2,22.4-3.055
	C987.62,722.082,984.565,739.391,984.565,739.391z"/>
<path style="fill:#F9F7EF;" d="M906.166,768.918c0,0,5.091,10.182-8.145,15.273s-19.345,7.127-24.436,0s-3.055-11.2-3.055-11.2
	s-9.164-5.091-4.073-11.2c5.091-6.109,22.4-16.291,35.636-14.254c13.236,2.036,14.254,5.091,13.236,11.2
	C914.311,764.845,906.166,768.918,906.166,768.918z"/>
<path style="fill:#F9F7EF;" d="M521.297,85.724c0,0,5.091,10.182-8.145,15.273c-13.236,5.091-19.345,7.127-24.436,0
	c-5.091-7.127-3.055-11.2-3.055-11.2s-9.164-5.091-4.073-11.2c5.091-6.109,22.4-16.291,35.636-14.254
	c13.236,2.036,14.254,5.091,13.236,11.2S521.297,85.724,521.297,85.724z"/>
<path style="fill:#F9F7EF;" d="M339.044,906.372c0,0,5.091,10.182-8.145,15.273c-13.236,5.091-19.345,7.127-24.436,0
	c-5.091-7.127-3.055-11.2-3.055-11.2s-9.164-5.091-4.073-11.2c5.091-6.109,22.4-16.291,35.636-14.254
	c13.236,2.036,14.254,5.091,13.236,11.2C347.189,902.299,339.044,906.372,339.044,906.372z"/>
<path style="fill:#F9F7EF;" d="M859.33,730.228c0,0-1.018,16.291-15.273,21.382c-14.254,5.091-28.509,14.254-33.6,7.127
	c-5.091-7.127-11.2-14.254-6.109-20.363c5.091-6.109,10.182-20.363,23.418-24.436s27.491-9.164,31.563,0
	C863.403,723.1,859.33,730.228,859.33,730.228z"/>
<path style="fill:#F9F7EF;" d="M699.477,795.391c0,0-8.145-1.018,0-13.236s17.309-19.345,29.527-23.418s24.436-15.273,36.654-9.164
	c12.218,6.109,13.236,15.273,11.2,22.4c-2.036,7.127-30.545,34.618-39.709,36.654c-9.164,2.036-9.164,8.145-15.273,11.2
	c-6.109,3.055-34.618,16.291-38.691,7.127C679.113,817.79,699.477,795.391,699.477,795.391z"/>
<path style="fill:#F9F7EF;" d="M939.766,535.756c0,0,15.273-2.036,24.436,5.091c9.164,7.127,16.291,30.545,0,42.763
	s-35.636,34.618-52.945,30.545c-17.309-4.073-31.563-20.363-30.545-30.545c1.018-10.182-1.018-7.127-7.127-8.145
	c-6.109-1.018-18.327-8.145-16.291-17.309c2.036-9.164,11.2-22.4,0-27.491c-11.2-5.091-14.254-3.055-13.236-13.236
	c1.018-10.182,1.018-5.091,0-15.273c-1.018-10.182,6.109-16.291,0-20.363c-6.109-4.073-12.218-16.291-7.127-19.345
	c5.091-3.055,13.236-9.164,12.218-19.345s25.454-16.291,35.636-13.236c10.182,3.055,18.327,0,17.309,13.236
	c-1.018,13.236-1.018,27.491,10.182,27.491c11.2,0,30.545,5.091,31.563,11.2c1.018,6.109,4.073,14.254,0,25.454
	c-4.073,11.2-13.236,17.309-12.218,22.4C932.639,534.738,939.766,535.756,939.766,535.756z"/>
<path style="fill:#F9F7EF;" d="M1013.074,457.357c0,0,7.127,17.309-10.182,19.345s-24.436,6.109-34.618-3.055
	c-10.182-9.164-16.291-9.164-14.254-19.345c2.036-10.182,6.109-9.164,5.091-13.236s0-28.509,2.036-36.654
	c2.036-8.145,22.4-19.345,36.654-18.327c14.254,1.018,31.563,9.164,31.563,18.327c0,9.164-4.073,23.418,0,30.545
	C1033.438,442.085,1013.074,457.357,1013.074,457.357z"/>
<path style="fill:#F9F7EF;" d="M849.148,626.374c0,0,20.363,6.109,18.327,19.345c-2.036,13.236,0,19.345-16.291,29.527
	c-16.291,10.182-38.691,27.491-63.127,12.218s-27.491-38.691-26.473-42.763c1.018-4.073,8.145-10.182,0-13.236
	c-8.145-3.055-13.236,2.036-15.273-11.2c-2.036-13.236,14.254-24.436,12.218-33.6c-2.036-9.164-11.2-13.236-4.073-23.418
	c7.127-10.182,9.164-12.218,11.2-19.345c2.036-7.127,25.454-20.363,36.654-19.345c11.2,1.018,5.091,7.127,13.236,18.327
	c8.145,11.2,25.454,25.454,26.473,35.636c1.018,10.182-2.036,17.309-5.091,25.454s-11.2,14.254-1.018,19.345
	C846.094,628.41,849.148,626.374,849.148,626.374z"/>
<path style="fill:#F9F7EF;" d="M783.082,857.277c0,0-18.32-6.297,0.867-34.786c19.187-28.489,34.544-42.053,46.602-28.402
	c12.057,13.651,15.418,27.086,1.948,41.413C819.029,849.829,791.016,859.382,783.082,857.277z"/>
<path style="fill:#F9F7EF;" d="M987.62,911.555c0,0,0.902-0.474,2.367-1.157c5.322-2.48,18.078-7.706,22.069-2.915
	c5.091,6.109,11.2,18.327-4.073,24.436c-15.273,6.109-28.509,20.363-35.636,10.182c-7.127-10.182-16.291-23.418-4.073-27.491
	s21.382-3.055,21.382-3.055H987.62z"/>
<path style="fill:#F9F7EF;" d="M601.732,761.791c0,0,24.436,4.073,28.509,16.291s9.164,16.291,3.055,27.491
	c-6.109,11.2-16.291,16.291-17.309,23.418s-8.145,15.273-19.345,12.218c-11.2-3.055-18.327-17.309-26.473-18.327
	c-8.145-1.018-10.182,7.127-20.363,2.036c-10.182-5.091-5.091-9.164-12.218-9.164s-20.363-7.127-22.4-20.363
	c-2.036-13.236-6.109-20.363-5.091-23.418c1.018-3.055,4.073-5.091,0-10.182c-4.073-5.091-23.418-22.4-21.382-30.545
	s16.291-25.454,22.4-23.418c6.109,2.036,8.145,7.127,15.273,3.055s13.236-22.4,27.491-11.2c14.254,11.2,18.327,10.182,16.291,17.309
	c-2.036,7.127,3.055,6.109,5.091,11.2c2.036,5.091-5.091,15.273,3.055,20.363S601.732,761.791,601.732,761.791z"/>
<path style="fill:#F9F7EF;" d="M692.35,560.193c0,0,0,16.291-5.091,27.491c-5.091,11.2-8.145,10.182-4.073,18.327
	s7.127,23.418-2.036,26.472c-9.164,3.055-14.254-2.036-17.309,3.055c-3.055,5.091-31.563,49.89-47.854,51.927
	c-16.291,2.036-25.454,2.036-24.436-10.182s17.309-21.382,15.273-28.509c-2.036-7.127-17.309-6.109-19.345-14.254
	c-2.036-8.145,25.454-27.491,21.382-31.563s-11.2-13.236,7.127-24.436c18.327-11.2,57.018-24.436,67.199-22.4
	C693.368,558.156,692.35,560.193,692.35,560.193z"/>
<path style="fill:#F9F7EF;" d="M747.331,506.229c0,0,0,20.363-11.2,23.418c-11.2,3.055-22.4,4.073-28.509-2.036
	c-6.109-6.109-5.091-10.182-12.218-8.145c-7.127,2.036-13.236,15.273-22.4,9.164c-9.164-6.109-9.164-18.327-14.254-19.345
	c-5.091-1.018-8.145,2.036-13.236-3.055c-5.091-5.091-3.055-11.2-7.127-12.218c-4.073-1.018-13.236-1.018-11.2-8.145
	c2.036-7.127,10.182-15.273,22.4-13.236s9.164,5.091,16.291,2.036c7.127-3.055,12.218-10.182,20.363-9.164
	c8.145,1.018,15.273,0,16.291,5.091c1.018,5.091,5.091,10.182,13.236,9.164c8.145-1.018,16.291-1.018,21.382,3.055
	c5.091,4.073,0,6.109,3.055,13.236C743.258,503.175,747.331,506.229,747.331,506.229z"/>
<path style="fill:#F9F7EF;" d="M814.53,431.903c0,0-3.055,20.363-17.309,19.345c-14.254-1.018-11.2-8.145-21.382-7.127
	c-10.182,1.018-20.363,9.164-38.691,1.018c-18.327-8.145-24.436-12.218-22.4-22.4c2.036-10.182,14.254-31.563,21.382-31.563
	c7.127,0,8.145,3.055,12.218,0c4.073-3.055,9.164-7.127,18.327-5.091s8.145,8.145,17.309,7.127
	c9.164-1.018,23.418-6.109,35.636,8.145s7.127,22.4,2.036,24.436C816.567,427.83,814.53,431.903,814.53,431.903z"/>
<path style="fill:#F9F7EF;" d="M951.984,376.921c0,0-10.182,25.454-32.582,19.345c-22.4-6.109-19.345-15.273-30.545-17.309
	s-13.236,6.109-18.327-2.036c-5.091-8.145-7.127-41.745,6.109-56s33.6-23.418,43.781-24.436c10.182-1.018,35.636,0,44.8,7.127
	c9.164,7.127,12.218,16.291,9.164,23.418c-3.055,7.127-9.164,10.182-8.145,13.236c1.018,3.055,11.2,7.127,9.164,14.254
	c-2.036,7.127-21.382,14.254-22.4,16.291C951.984,372.849,951.984,376.921,951.984,376.921z"/>
<path style="fill:#F9F7EF;" d="M1036.492,105.069c0,0-3.054,26.473-14.254,24.436c-11.2-2.036-12.218-23.418-11.2-28.509
	s5.091-9.164,4.073-12.218s2.036-7.127,8.145-7.127s12.218,0,13.236,6.109C1037.51,93.869,1036.492,105.069,1036.492,105.069z"/>
<path style="fill:#F9F7EF;" d="M1219.763,112.196c0,0,11.2,18.327,0,20.363s-21.382-3.055-20.363-13.236
	c1.018-10.182-3.055-15.273,7.127-17.309C1216.709,99.978,1218.745,110.16,1219.763,112.196z"/>
<path style="fill:#F9F7EF;" d="M1194.309,83.688c0,0,0,23.418-11.2,23.418c-11.2,0-7.127-5.091-9.164-9.164
	c-2.036-4.073-8.145-10.182,0-16.291s16.291-13.236,20.363-9.164C1198.382,76.56,1194.309,83.688,1194.309,83.688z"/>
<path style="fill:#F9F7EF;" d="M992.711,158.014c0,0-2.036,6.109,8.145,10.182c10.182,4.073,18.327,8.145,11.2,19.345
	s-35.636,15.273-43.781,11.2s-29.527-17.309-29.527-26.473s-3.055-25.454,16.291-25.454s24.436,0,31.563,4.073
	S992.711,158.014,992.711,158.014z"/>
<path style="fill:#F9F7EF;" d="M1257.436,71.469c0,0,10.182,6.109,4.073,10.182s-19.345,4.073-22.4,0
	c-3.055-4.073-2.036-7.127,2.036-8.145C1245.218,72.488,1257.436,71.469,1257.436,71.469z"/>
<path style="fill:#F9F7EF;" d="M1276.781,42.961c0,0-2.036,8.145-10.182,7.127s-13.236-5.091-7.127-7.127
	S1274.745,38.888,1276.781,42.961z"/>
<path style="fill:#F9F7EF;" d="M1223.836,54.161c0,0-7.127,6.109-11.2,2.036c-4.073-4.073-12.218-14.254-4.073-15.273
	s26.473-5.091,28.509,0s5.091,15.273-4.073,14.254C1223.836,54.161,1223.836,54.161,1223.836,54.161z"/>
<path style="fill:#F9F7EF;" d="M1104.71,77.579c0,0,5.091,11.2-6.109,13.236s-19.345,2.036-25.454-4.073s-14.254-8.145-9.164-19.345
	c5.091-11.2,24.436-24.436,34.618-21.382s14.254,9.164,13.236,15.273S1103.692,75.542,1104.71,77.579z"/>
<path style="fill:#F9F7EF;" d="M916.348,216.05c0,0,10.182,1.018,14.254,4.073s25.454,11.2,19.345,19.345
	c-6.109,8.145-18.327,9.164-21.382,14.254c-3.055,5.091-6.109,22.4-16.291,21.382c-10.182-1.018-30.545-23.418-40.727-23.418
	c-10.182,0-14.254,10.182-24.436-1.018c-10.182-11.2-13.236-24.436-27.491-30.545c-14.254-6.109-34.618-4.073-41.745-14.254
	c-7.127-10.182-5.091-18.327,5.091-19.345c10.182-1.018,21.382,1.018,20.363-3.055s-7.127-20.363,9.164-25.454
	s29.527-14.254,36.654-6.109s12.218,27.491,20.363,24.436s16.291-8.145,28.509-4.073s19.345,16.291,20.363,26.473
	S916.348,216.05,916.348,216.05z"/>
<path style="fill:#F9F7EF;" d="M762.604,131.542c0,0,8.145,39.709-23.418,39.709s-24.436,3.055-37.672-7.127
	s-19.345-9.164-18.327-18.327c1.018-9.164-2.036-14.254,5.091-19.345c7.127-5.091,10.182-7.127,15.273-12.218
	c5.091-5.091,15.273-10.182,28.509-10.182c13.236,0,29.527,3.055,31.563,13.236C765.658,127.469,762.604,131.542,762.604,131.542z"
	/>
<path style="fill:#F9F7EF;" d="M666.895,207.905c0,0-14.254-17.309,10.182-22.4s74.327,3.055,74.327,18.327
	s-32.582,43.781-50.909,44.8c-18.327,1.018-26.472-7.127-28.509-10.182c-2.036-3.055-16.291-10.182-13.236-19.345
	C661.805,209.941,666.895,207.905,666.895,207.905z"/>
<path style="fill:#F9F7EF;" d="M607.841,103.033c0,0,5.091,9.164-10.182,9.164c-15.273,0-47.854-5.091-48.872-15.273
	c-1.018-10.182,2.036-27.491,16.291-29.527c14.254-2.036,13.236-4.073,24.436,0c11.2,4.073,14.254,1.018,21.382,7.127
	s16.291,14.254,13.236,20.363S607.841,103.033,607.841,103.033z"/>
<path style="fill:#F9F7EF;" d="M327.844,159.032c0,0,6.109,0,3.055,6.109c-3.055,6.109-20.363-1.018-19.345-8.145
	c1.018-7.127,5.091-10.182,10.182-7.127C326.826,152.923,327.844,159.032,327.844,159.032z"/>
<path style="fill:#F9F7EF;" d="M262.681,145.796c0,0-3.055,12.218-11.2,4.073c-8.145-8.145-10.182-15.273-2.036-18.327
	c8.145-3.055,22.4-3.055,23.418,5.091C273.88,144.778,262.681,145.796,262.681,145.796z"/>
<path style="fill:#F9F7EF;" d="M409.298,139.687c0,0,1.018-8.145,13.236-3.055s11.2,7.127,7.127,11.2s-8.145,4.073-14.254,0
	S409.298,139.687,409.298,139.687z"/>
<path style="fill:#F9F7EF;" d="M371.625,147.832c0,0,6.109,4.073,0,6.109s-14.254,2.036-13.236-3.055
	c1.018-5.091,6.109-11.2,10.182-8.145S371.625,147.832,371.625,147.832z"/>
<path style="fill:#F9F7EF;" d="M821.658,1029.571c0,0,6.109,4.073,0,6.109c-6.109,2.036-14.254,2.036-13.236-3.055
	c1.018-5.091,6.109-11.2,10.182-8.145C822.676,1027.534,821.658,1029.571,821.658,1029.571z"/>
<path style="fill:#F9F7EF;" d="M232.135,155.978c0,0,5.091,5.091,0,6.109s-21.382-2.036-19.345-6.109s12.218-4.073,14.254-3.055
	S232.135,155.978,232.135,155.978z"/>
<path style="fill:#F9F7EF;" d="M757.513,999.025c0,0,5.091,5.091,0,6.109c-5.091,1.018-21.382-2.036-19.345-6.109
	c2.036-4.073,12.218-4.073,14.254-3.055C754.458,996.989,757.513,999.025,757.513,999.025z"/>
<path style="fill:#F9F7EF;" d="M371.625,181.432c0,0-8.145,1.018-7.127-3.055c1.018-4.073,8.145-5.091,11.2-2.036
	c3.055,3.055,3.055,5.091,0,7.127C372.643,185.505,371.625,181.432,371.625,181.432z"/>
<path style="fill:#F9F7EF;" d="M108.936,926.735c0,0-14.254-17.309,10.182-22.4c24.436-5.091,74.327,3.055,74.327,18.327
	c0,15.273-32.582,43.781-50.909,44.8c-18.327,1.018-26.473-7.127-28.509-10.182s-16.291-10.182-13.236-19.345
	C103.846,928.771,108.936,926.735,108.936,926.735z"/>
<path style="fill:#F9F7EF;" d="M232.135,1004.116c0,0,5.091,9.164-10.182,9.164s-47.854-5.091-48.872-15.273
	c-1.018-10.182,2.036-27.491,16.291-29.527c14.254-2.036,13.236-4.073,24.436,0s14.254,1.018,21.382,7.127
	c7.127,6.109,16.291,14.254,13.236,20.363C245.372,1002.08,232.135,1004.116,232.135,1004.116z"/>
<path style="fill:#F9F7EF;" d="M83.482,916.553c0,0,6.109,0,3.055,6.109c-3.055,6.109-20.363-1.018-19.345-8.145
	c1.018-7.127,5.091-10.182,10.182-7.127S83.482,916.553,83.482,916.553z"/>
<path style="fill:#F9F7EF;" d="M62.1,954.226c0,0-3.055,12.218-11.2,4.073s-10.182-15.273-2.036-18.327s22.4-3.055,23.418,5.091
	S62.1,954.226,62.1,954.226z"/>
<path style="fill:#F9F7EF;" d="M85.518,1044.843c0,0,1.018-8.145,13.236-3.055s11.2,7.127,7.127,11.2
	c-4.073,4.073-8.145,4.073-14.254,0C85.518,1048.916,85.518,1044.843,85.518,1044.843z"/>
<path style="fill:#F9F7EF;" d="M47.846,1052.989c0,0,6.109,4.073,0,6.109s-14.254,2.036-13.236-3.055
	c1.018-5.091,6.109-11.2,10.182-8.145C48.864,1050.952,47.846,1052.989,47.846,1052.989z"/>
<path style="fill:#F9F7EF;" d="M50.901,1028.552c0,0,5.091,5.091,0,6.109s-21.382-2.036-19.345-6.109
	c2.036-4.073,12.218-4.073,14.254-3.055S50.901,1028.552,50.901,1028.552z"/>
<path style="fill:#F9F7EF;" d="M34.61,991.898c0,0-8.145,1.018-7.127-3.055s8.145-5.091,11.2-2.036c3.055,3.055,3.055,5.091,0,7.127
	C35.628,995.971,34.61,991.898,34.61,991.898z"/>
<path style="fill:#F9F7EF;" d="M607.841,155.978c0,0,26.472-17.309,29.527-10.182c3.055,7.127-6.109,15.273-5.091,23.418
	s6.109,13.236-2.036,14.254s-15.273-5.091-18.327-3.055s11.2,11.2,2.036,13.236c-9.164,2.036-14.254-7.127-26.472-10.182
	s-33.6,0-39.709-11.2c-6.109-11.2-11.2-16.291,0-22.4c11.2-6.109,32.582-7.127,41.745-4.073
	C598.678,148.851,607.841,155.978,607.841,155.978z"/>
<path style="fill:#F9F7EF;" d="M593.587,227.25c0,0,8.145,35.636-5.091,40.727c-13.236,5.091-14.254,8.145-20.363,15.273
	c-6.109,7.127-6.109,16.291-18.327,12.218s-6.109-4.073-15.273-14.254s-19.345-7.127-19.345-19.345s0-40.727,7.127-45.818
	s10.182-3.055,10.182-3.055s7.127-8.145,18.327-8.145s27.491,1.018,34.618,8.145C592.569,220.123,593.587,227.25,593.587,227.25z"/>
<path style="fill:#F9F7EF;" d="M773.804,307.686c0,0-13.236,18.327-9.164,25.454c4.073,7.127,13.236,19.345,23.418,17.309
	c10.182-2.036,3.055,6.109,15.273,6.109s41.745-12.218,45.818-31.563c4.073-19.345,5.091-36.654-5.091-45.818
	c-10.182-9.164-17.309-3.055-23.418-11.2c-6.109-8.145-15.273-7.127-22.4-4.073c-7.127,3.055-25.454,2.036-27.491,9.164
	C768.713,280.195,770.749,302.595,773.804,307.686z"/>
<path style="fill:#F9F7EF;" d="M584.423,363.685c0,0-8.145,9.164-23.418,8.145c-15.273-1.018-10.182-9.164-20.363-8.145
	c-10.182,1.018-5.091,9.164-17.309,4.073c-12.218-5.091-6.109-9.164-14.254-14.254c-8.145-5.091-22.4-7.127-18.327-17.309
	s23.418-15.273,28.509-12.218c5.091,3.055,4.073,6.109,13.236,5.091c9.164-1.018,36.654,4.073,39.709,8.145
	c3.055,4.073,10.182,4.073,12.218,10.182C586.46,353.503,584.423,363.685,584.423,363.685z"/>
<path style="fill:#F9F7EF;" d="M739.186,893.135c0,0-8.145,9.164-23.418,8.145c-15.273-1.018-10.182-9.164-20.363-8.145
	c-10.182,1.018-5.091,9.164-17.309,4.073c-12.218-5.091-6.109-9.164-14.254-14.254s-22.4-7.127-18.327-17.309
	c4.073-10.182,23.418-15.273,28.509-12.218s4.073,6.109,13.236,5.091c9.164-1.018,36.654,4.073,39.709,8.145
	s10.182,4.073,12.218,10.182C741.222,882.954,739.186,893.135,739.186,893.135z"/>
<path style="fill:#F9F7EF;" d="M296.28,182.45c0,0,1.018,8.145-8.145,8.145c-9.164,0-11.2-3.055-15.273-4.073
	s-11.2-5.091-8.145-9.164s12.218-7.127,20.363-6.109S296.28,182.45,296.28,182.45z"/>
<path style="fill:#F9F7EF;" d="M358.693,199.338c0,0,7.283,8.133-1.821,17.08c-9.104,8.947-30.953,8.133-32.774,3.253
	c-1.821-4.88-7.283-4.88-5.462-11.387c1.821-6.507,10.014-18.707,16.387-18.707c6.373,0,4.552,0.813,12.745,2.44
	S358.693,199.338,358.693,199.338z"/>
<path style="fill:#F9F7EF;" d="M286.099,214.014c-1.018,1.018,3.055,12.218-11.2,10.182s-20.363-2.036-20.363-8.145
	s0-6.109,9.164-9.164c9.164-3.055,15.273-3.055,16.291,0C281.008,209.941,286.099,214.014,286.099,214.014z"/>
<path style="fill:#F9F7EF;" d="M1036.492,670.248c0,0-38.691,19.345-57.018,14.254c-18.327-5.091-17.309-2.036-31.563-1.018
	c-14.254,1.018-35.636,0-36.654-13.236c-1.018-13.236,3.055-34.618,26.472-30.545s15.273,12.218,33.6,9.164
	c18.327-3.055,24.436-15.273,41.745-9.164c17.309,6.109,28.509,10.182,27.491,18.327S1036.492,670.248,1036.492,670.248z"/>
<path style="fill:#F9F7EF;" d="M1078.237,788.356c0,0-3.054-6.109-20.363-7.127s-19.345,7.127-28.509-6.109
	c-9.164-13.236-14.254-33.6,4.073-40.727c18.327-7.127,34.618-6.109,44.8-3.055c10.182,3.055,34.618,25.454,31.563,39.709
	C1106.746,785.302,1097.583,792.429,1078.237,788.356z"/>
<path style="fill:#F9F7EF;" d="M417.443,924.699c0,0,2.036,18.327-12.218,28.509c-14.254,10.182-40.727,15.273-47.854,8.145
	c-7.127-7.127-20.363-4.073-12.218-18.327c8.145-14.254,26.473-32.582,44.8-31.563s23.418,3.055,24.436,7.127
	C415.407,922.662,417.443,924.699,417.443,924.699z"/>
<path style="fill:#F9F7EF;" d="M328.862,995.971c0,0,1.018,16.291-8.145,15.273c-9.164-1.018-15.273-3.055-13.236-7.127
	s3.055-14.254,10.182-14.254c7.127,0,9.164,0,11.2,2.036C330.898,993.934,328.862,995.971,328.862,995.971z"/>
<path style="fill:#F9F7EF;" d="M292.208,975.607c0,0,0,9.164-7.127,8.145c-7.127-1.018-11.2-3.055-6.109-8.145
	c5.091-5.091,7.127-8.145,13.236-5.091C298.317,973.571,292.208,975.607,292.208,975.607z"/>
<path style="fill:#F9F7EF;" d="M320.716,961.353c0,0,3.055,8.145-5.091,8.145s-10.182-6.109-8.145-12.218
	c2.036-6.109,10.182-10.182,14.254-7.127C325.807,953.208,325.807,960.335,320.716,961.353z"/>
<path style="fill:#F9F7EF;" d="M468.352,768.918c0,0,10.182,0,10.182,22.4c0,22.4,10.182,44.8-10.182,42.763
	c-20.363-2.036-23.418-6.109-33.6-6.109s-10.182,3.055-14.254-3.055c-4.073-6.109-21.382-16.291-18.327-24.436
	c3.055-8.145,5.091-27.491,15.273-31.563s32.582-10.182,40.727-7.127C466.315,764.845,468.352,768.918,468.352,768.918z"/>
<path style="fill:#F9F7EF;" d="M266.753,906.372c1.018,2.036,23.418,15.273,5.091,31.563s-36.654,13.236-39.709,7.127
	c-3.055-6.109-17.309-17.309-13.236-33.6s8.145-20.363,18.327-21.382s17.309-1.018,22.4,6.109
	C264.717,903.317,266.753,906.372,266.753,906.372z"/>
<path style="fill:#F9F7EF;" d="M362.462,781.136c0,0,19.345,17.309,14.254,33.6c-5.091,16.291-5.091,23.418-20.363,24.436
	c-15.273,1.018-30.545,2.036-37.672-7.127c-7.127-9.164-6.109-11.2-15.273-14.254c-9.164-3.055-13.236-12.218-17.309-17.309
	s-14.254-12.218-7.127-21.382c7.127-9.164,8.145-19.345,29.527-15.273c21.382,4.073,17.309,4.073,32.582,8.145
	C356.353,776.045,362.462,781.136,362.462,781.136z"/>
<path style="fill:#F9F7EF;" d="M1083.328,832.045c0,0,19.345,17.309,14.254,33.6s-5.091,23.418-20.363,24.436
	c-15.273,1.018-30.545,2.036-37.672-7.127s-6.109-11.2-15.273-14.254c-9.164-3.055-13.236-12.218-17.309-17.309
	c-4.073-5.091-14.254-12.218-7.127-21.382s8.145-19.345,29.527-15.273c21.382,4.073,17.309,4.073,32.582,8.145
	C1077.219,826.954,1083.328,832.045,1083.328,832.045z"/>
<path style="fill:#F9F7EF;" d="M705.771,741.796c0,0-16.081,20.377-32.655,16.302s-23.688-3.635-25.647-18.816
	c-1.959-15.181-3.919-30.361,4.787-38.041c8.706-7.679,10.801-6.789,13.284-16.124c2.483-9.335,11.377-13.965,16.207-18.345
	c4.83-4.379,11.315-14.982,20.901-8.434c9.586,6.548,19.811,6.935,17.067,28.528c-2.745,21.592-2.996,17.527-6.118,33.022
	S705.771,741.796,705.771,741.796z"/>
<path style="fill:#F9F7EF;" d="M473.442,708.846c0,0-18.327,28.509-62.109,35.636s-49.89,15.273-63.127,4.073
	c-13.236-11.2-22.4-10.182-14.254-20.363c8.145-10.182,22.4-18.327,29.527-24.436c7.127-6.109,18.327-12.218,34.618-12.218
	s16.291-5.091,26.473-4.073s40.727,3.055,45.818,9.164C475.479,702.737,473.442,708.846,473.442,708.846z"/>
<path style="fill:#F9F7EF;" d="M557.951,595.829c0,0,6.109,14.254-9.164,28.509c-15.273,14.254-50.909,46.836-75.345,45.818
	s-42.763,1.018-43.781-13.236c-1.018-14.254,10.182-30.545,19.345-33.6c9.164-3.055,6.109-2.036,5.091-4.073
	c-1.018-2.036-16.291-16.291-4.073-21.382s25.454-4.073,27.491-9.164s-3.055-13.236,8.145-16.291c11.2-3.055,31.563,0,44.8,2.036
	C543.696,576.483,557.951,595.829,557.951,595.829z"/>
<path style="fill:#F9F7EF;" d="M246.39,792.336c0,0-4.073,39.709-22.4,37.672c-18.327-2.036-44.8-29.527-42.763-37.672
	s-3.055-9.164-3.055-23.418c0-14.254-3.055-24.436,9.164-24.436s40.727-1.018,49.89,13.236
	C246.39,771.973,246.39,792.336,246.39,792.336z"/>
<path style="fill:#F9F7EF;" d="M150.682,766.882c0,0,3.055,22.4-14.254,24.436c-17.309,2.036-36.654-1.018-36.654-8.145
	c0-7.127-9.164-11.2-4.073-16.291c5.091-5.091,3.055-20.363,15.273-22.4C123.191,742.446,144.572,749.573,150.682,766.882z"/>
<path style="fill:#F9F7EF;" d="M188.354,692.555c0,0,24.436,27.491-9.164,32.582c-33.6,5.091-43.781-2.036-47.854-16.291
	c-4.073-14.254-19.345-34.618-3.055-40.727c16.291-6.109,31.563-10.182,44.8,2.036S188.354,692.555,188.354,692.555z"/>
<path style="fill:#F9F7EF;" d="M294.244,727.173c0,0-8.145,18.327-24.436,14.254s-10.182-12.218-17.309-14.254
	c-7.127-2.036-17.309-5.091-12.218-16.291s21.382-23.418,36.654-23.418s33.6,2.036,35.636,17.309
	C314.607,720.046,294.244,727.173,294.244,727.173z"/>
<path style="fill:#F9F7EF;" d="M276.935,645.719c0,0,2.036,15.273-16.291,16.291s-25.454,1.018-25.454-5.091
	c0-6.109,11.2-20.363,25.454-20.363S274.899,637.574,276.935,645.719z"/>
<path style="fill:#F9F7EF;" d="M411.334,593.792c0,0,13.236-1.018,11.2,16.291s-8.145,34.618-37.672,42.763
	c-29.527,8.145-73.308,14.254-75.345,0c-2.036-14.254,16.291-26.472,31.563-29.527c15.273-3.055-15.273,7.127-22.4-7.127
	c-7.127-14.254-9.164-22.4,4.073-27.491c13.236-5.091,68.218-4.073,75.345-4.073C405.225,584.629,411.334,593.792,411.334,593.792z"
	/>
<path style="fill:#F9F7EF;" d="M312.571,572.411c0,0-34.618,27.491-56,31.563s-35.636,5.091-34.618-7.127
	s23.418-23.418,20.363-25.454c-3.055-2.036-15.273,5.091-15.273-7.127s10.182-27.491,36.654-29.527
	c26.473-2.036,49.891-3.055,58.036,14.254S312.571,572.411,312.571,572.411z"/>
<path style="fill:#F9F7EF;" d="M183.263,629.428c0,0-4.073,12.218-17.309,8.145s-15.273-6.109-14.254-11.2
	s6.109-10.182,15.273-10.182s13.236-1.018,14.254,3.055S183.263,629.428,183.263,629.428z"/>
<path style="fill:#F9F7EF;" d="M137.445,619.247c0,0-3.055,5.091-9.164,5.091c-6.109,0-10.182-3.055-10.182-5.091
	c0-2.036,2.036-7.127,10.182-7.127S137.445,619.247,137.445,619.247z"/>
<path style="fill:#F9F7EF;" d="M140.5,589.72c0,0-3.055,6.109-12.218,4.073c-9.164-2.036-9.164-6.109-7.127-8.145
	c2.036-2.036,4.073-3.055,9.164-2.036C135.409,584.629,140.5,589.72,140.5,589.72z"/>
<path style="fill:#F9F7EF;" d="M177.154,578.52c0,0-2.036,8.145-10.182,5.091c-8.145-3.055-17.309-8.145-13.236-14.254
	c4.073-6.109,5.091-12.218,11.2-9.164s17.309,4.073,16.291,9.164S177.154,578.52,177.154,578.52z"/>
<path style="fill:#F9F7EF;" d="M91.627,571.393c0,0,3.055,10.182-6.109,10.182s-11.2-1.018-14.254-5.091s-6.109-2.036-6.109-9.164
	c0-7.127-1.018-14.254,8.145-13.236c9.164,1.018,11.2,4.073,15.273,8.145S91.627,571.393,91.627,571.393z"/>
<path style="fill:#F9F7EF;" d="M61.082,547.975c0,0-3.055,6.109-8.145,3.055c-5.091-3.055-11.2-10.182-6.109-11.2
	s8.145-4.073,11.2,0S61.082,547.975,61.082,547.975z"/>
<path style="fill:#F9F7EF;" d="M109.955,535.756c0,0-5.091,3.055-11.2,0s-12.218-12.218-7.127-15.273
	c5.091-3.055,12.218-2.036,14.254,3.055S109.955,535.756,109.955,535.756z"/>
<path style="fill:#F9F7EF;" d="M71.264,514.375c-1.018,4.073-9.164,6.109-12.218,0c-3.055-6.109-7.127-8.145-2.036-9.164
	C62.1,504.193,71.264,514.375,71.264,514.375z"/>
<path style="fill:#F9F7EF;" d="M86.537,497.066c-3.055,4.073-11.2,6.109-12.218,0s2.036-8.145,6.109-7.127
	C84.5,490.957,86.537,497.066,86.537,497.066z"/>
<path style="fill:#F9F7EF;" d="M203.627,539.829c0,0,5.091,10.182-11.2,6.109s-40.727-29.527-38.691-37.672
	c2.036-8.145,5.091-5.091,7.127-12.218c2.036-7.127,41.745,3.055,46.836,8.145c5.091,5.091,17.309,14.254,11.2,24.436
	C212.79,538.811,203.627,539.829,203.627,539.829z"/>
<path style="fill:#F9F7EF;" d="M612.932,538.811c0,0,6.109,12.218-2.036,16.291s-6.109-1.018-10.182,2.036s-11.2,7.127-19.345,3.055
	s-4.073-4.073-17.309-5.091c-13.236-1.018-22.4,3.055-27.491,0c-5.091-3.055-10.182,4.073-16.291-5.091
	c-6.109-9.164-4.073-20.363-13.236-25.454s-22.4-4.073-15.273-12.218c7.127-8.145,7.127-12.218,15.273-12.218
	c8.145,0,9.164,6.109,13.236,0s4.073-9.164,12.218-9.164s12.218,9.164,21.382,9.164s32.582,1.018,37.672,4.073
	c5.091,3.055,10.182,11.2,9.164,15.273c-1.018,4.073-1.018,10.182,3.055,14.254S612.932,538.811,612.932,538.811z"/>
<path style="fill:#F9F7EF;" d="M406.243,508.266c0,0,24.436,0,23.418,11.2c-1.018,11.2-3.055,25.454-14.254,28.509
	c-11.2,3.055-9.164,7.127-25.454,5.091c-16.291-2.036-8.145,3.055-19.345,0c-11.2-3.055-21.382-8.145-24.436-17.309
	c-3.055-9.164-22.4-13.236-22.4-23.418c0-10.182-2.036-25.454,10.182-25.454s18.327-5.091,25.454,4.073
	c7.127,9.164,15.273,14.254,24.436,15.273C393.007,507.248,406.243,508.266,406.243,508.266z"/>
<path style="fill:#F9F7EF;" d="M659.059,432.866c0,0-14.254,17.309-37.672,10.182c-23.418-7.127-26.472-14.254-29.527-20.363
	c-3.055-6.109-24.436-11.2-18.327-21.382c6.109-10.182,18.327-11.2,19.345-8.145c1.018,3.055,3.055,8.145,8.145,6.109
	c5.091-2.036,16.291-4.073,25.454-2.036s22.4-2.036,28.509,2.036c6.109,4.073,10.182,13.236,10.182,19.345
	S659.059,432.866,659.059,432.866z"/>
<path style="fill:#F9F7EF;" d="M552.297,435.975c0,0,19.345,20.363,7.127,27.491c-12.218,7.127-16.291,3.055-27.491-2.036
	c-11.2-5.091-28.509-1.018-33.6-14.254c-5.091-13.236-3.055-23.418,7.127-25.454s25.454-1.018,34.618,4.073
	C549.242,430.885,552.297,435.975,552.297,435.975z"/>
<path style="fill:#F9F7EF;" d="M136.427,1000.043c0,0,19.345,20.363,7.127,27.491c-12.218,7.127-16.291,3.054-27.491-2.036
	c-11.2-5.091-28.509-1.018-33.6-14.254c-5.091-13.236-3.055-23.418,7.127-25.454c10.182-2.036,25.454-1.018,34.618,4.073
	S136.427,1000.043,136.427,1000.043z"/>
<path style="fill:#F9F7EF;" d="M712.713,319.904c0,0,24.436,26.473,9.164,37.672c-15.273,11.2-40.727,15.273-51.927,9.164
	c-11.2-6.109,3.055-10.182-20.363-9.164c-23.418,1.018-26.473,11.2-41.745-1.018s-24.436-17.309-22.4-34.618
	c2.036-17.309,10.182-32.582,20.363-32.582c10.182,0,10.182-7.127,17.309-13.236s32.582-9.164,43.781-7.127
	c11.2,2.036,18.327-1.018,22.4-1.018s34.618,8.145,37.672,19.345c3.055,11.2,6.109,13.236,0,23.418
	C720.859,320.922,712.713,319.904,712.713,319.904z"/>
<path style="fill:#F9F7EF;" d="M383.843,320.922c0,0,5.091,9.164-2.036,13.236c-7.127,4.073-21.382,3.055-25.454-6.109
	c-4.073-9.164-2.036-12.218-9.164-14.254c-7.127-2.036-15.273-2.036-12.218-8.145c3.055-6.109,12.218-10.182,18.327-7.127
	c6.109,3.055,3.055,8.145,14.254,11.2C378.752,312.777,383.843,320.922,383.843,320.922z"/>
<path style="fill:#F9F7EF;" d="M488.969,404.358c0,0-7.127,7.127-15.273,3.055s-19.345-8.145-17.309-14.254
	s4.073-9.164,13.236-8.145c9.164,1.018,12.218,3.055,15.273,8.145C487.951,398.249,488.969,404.358,488.969,404.358z"/>
<path style="fill:#F9F7EF;" d="M287.117,864.626c0,0-7.127,7.127-15.273,3.055c-8.145-4.073-19.345-8.145-17.309-14.254
	c2.036-6.109,4.073-9.164,13.236-8.145c9.164,1.018,12.218,3.055,15.273,8.145C286.099,858.517,287.117,864.626,287.117,864.626z"/>
<path style="fill:#F9F7EF;" d="M440.861,188.559c0,0-1.018,5.091-9.164,5.091s-11.2,0-13.236-7.127s-9.164-5.091-2.036-11.2
	c7.127-6.109,15.273,0,19.345,2.036S440.861,188.559,440.861,188.559z"/>
<path style="fill:#F9F7EF;" d="M358.389,254.741c0,0-4.073,7.127-9.164,6.109c-5.091-1.018-14.254-5.091-12.218-10.182
	s3.055-6.109,10.182-4.073C354.316,248.632,358.389,254.741,358.389,254.741z"/>
<path style="fill:#F9F7EF;" d="M325.807,274.086c0,0,5.091,12.218-15.273,11.2c-20.363-1.018-20.363,3.055-26.473-5.091
	s-9.164-15.273-4.073-19.345c5.091-4.073,10.182-8.145,22.4-5.091c12.218,3.055,25.454,10.182,24.436,14.254
	C325.807,274.086,325.807,274.086,325.807,274.086z"/>
<path style="fill:#F9F7EF;" d="M252.499,276.122c0,0-26.473,9.164-34.618,3.055s-8.145-8.145-13.236-9.164
	c-5.091-1.018-5.091-11.2,0-15.273c5.091-4.073,0-10.182,16.291-6.109s30.545,8.145,31.563,15.273
	C253.517,271.031,252.499,276.122,252.499,276.122z"/>
<path style="fill:#F9F7EF;" d="M876.639,25.652c0,0,1.018,8.145-8.145,8.145s-11.2-3.055-15.273-4.073s-11.2-5.091-8.145-9.164
	s12.218-7.127,20.363-6.109S876.639,25.652,876.639,25.652z"/>
<path style="fill:#F9F7EF;" d="M938.748,40.924c0,0,8.145,10.182-2.036,21.382c-10.182,11.2-34.618,10.182-36.654,4.073
	c-2.036-6.109-8.145-6.109-6.109-14.254c2.036-8.145,11.2-23.418,18.327-23.418c7.127,0,5.091,1.018,14.254,3.055
	S938.748,40.924,938.748,40.924z"/>
<path style="fill:#F9F7EF;" d="M866.457,57.215c-1.018,1.018,3.055,12.218-11.2,10.182c-14.254-2.036-20.363-2.036-20.363-8.145
	s0-6.109,9.164-9.164s15.273-3.055,16.291,0S866.457,57.215,866.457,57.215z"/>
<path style="fill:#F9F7EF;" d="M978.456,106.087c0,0-1.018,5.091-9.164,5.091s-11.2,0-13.236-7.127
	c-2.036-7.127-9.164-5.091-2.036-11.2s15.273,0,19.345,2.036S978.456,106.087,978.456,106.087z"/>
<path style="fill:#F9F7EF;" d="M938.748,97.942c0,0-4.073,7.127-9.164,6.109s-14.254-5.091-12.218-10.182
	c2.036-5.091,3.055-6.109,10.182-4.073C934.675,91.833,938.748,97.942,938.748,97.942z"/>
<path style="fill:#F9F7EF;" d="M837.948,985.789c0,0-4.073,7.127-9.164,6.109c-5.091-1.018-14.254-5.091-12.218-10.182
	c2.036-5.091,3.055-6.109,10.182-4.073C833.876,979.68,837.948,985.789,837.948,985.789z"/>
<path style="fill:#F9F7EF;" d="M906.166,117.287c0,0,5.091,12.218-15.273,11.2s-20.363,3.055-26.473-5.091
	c-6.109-8.145-9.164-15.273-4.073-19.345s10.182-8.145,22.4-5.091s25.454,10.182,24.436,14.254
	C906.166,117.287,906.166,117.287,906.166,117.287z"/>
<path style="fill:#F9F7EF;" d="M832.858,119.324c0,0-26.473,9.164-34.618,3.055s-8.145-8.145-13.236-9.164
	c-5.091-1.018-5.091-11.2,0-15.273c5.091-4.073,0-10.182,16.291-6.109s30.545,8.145,31.563,15.273S832.858,119.324,832.858,119.324z
	"/>
<path style="fill:#F9F7EF;" d="M413.37,416.63c0,0,12.218,13.236-7.127,19.345c-19.345,6.109-10.182,10.182-31.563,8.145
	c-21.382-2.036-52.945,4.073-59.054-10.182s-13.236-24.436-3.055-27.491c10.182-3.055,22.4-4.073,19.345-6.109
	c-3.055-2.036-14.254,4.073-16.291-5.091c-2.036-9.164,7.127-25.454,16.291-27.491c9.164-2.036,5.091,4.073,13.236,3.055
	c8.145-1.018,9.164-4.073,18.327-3.055c9.164,1.018,59.054,14.254,61.09,24.436s0,7.127,0,12.218
	C424.57,409.503,415.407,416.63,413.37,416.63z"/>
<path style="fill:#F9F7EF;" d="M303.408,468.557c0,0-3.055,3.055-5.091,8.145c-2.036,5.091-3.055,22.4-14.254,22.4
	c-11.2,0-33.6-4.073-37.672-11.2c-4.073-7.127-17.309-7.127-28.509-17.309s-5.091-11.2-15.273-14.254
	c-10.182-3.055-10.182-20.363-2.036-28.509s16.291-18.327,26.473-17.309c10.182,1.018,16.291,7.127,27.491,2.036
	c11.2-5.091,13.236-17.309,23.418-4.073c10.182,13.236,6.109,12.218,6.109,23.418c0,11.2-2.036,16.291,5.091,22.4
	C296.28,460.412,301.371,461.43,303.408,468.557z"/>
<path style="fill:#F9F7EF;" d="M267.771,375.903c0,0-4.073,9.164-16.291,9.164c-12.218,0-21.382-4.073-26.473-9.164
	c-5.091-5.091-13.236-1.018-10.182-10.182c3.055-9.164,11.2-19.345,32.582-18.327c21.382,1.018,39.709,7.127,37.672,18.327
	C283.044,376.921,267.771,375.903,267.771,375.903z"/>
<path style="fill:#F9F7EF;" d="M297.298,316.849c0,0-15.273,22.4-27.491,21.382c-12.218-1.018-8.145,0-16.291-4.073
	c-8.145-4.073-12.218-9.164-10.182-17.309s-3.055-16.291,14.254-18.327c17.309-2.036,27.491-5.091,34.618,5.091
	C299.335,313.795,297.298,316.849,297.298,316.849z"/>
<path style="fill:#F9F7EF;" d="M687.259,11.397c0,0,1.018,8.145-8.145,8.145c-9.164,0-11.2-3.055-15.273-4.073
	s-11.2-5.091-8.145-9.164s12.218-7.127,20.363-6.109S687.259,11.397,687.259,11.397z"/>
<path style="fill:#F9F7EF;" d="M746.313,974.589c0,0,1.018,8.145-8.145,8.145s-11.2-3.055-15.273-4.073
	c-4.073-1.018-11.2-5.091-8.145-9.164s12.218-7.127,20.363-6.109C743.258,964.407,746.313,974.589,746.313,974.589z"/>
<path style="fill:#F9F7EF;" d="M711.695,38.888c-1.018,1.018,3.055,12.218-11.2,10.182c-14.254-2.036-20.363-2.036-20.363-8.145
	s0-6.109,9.164-9.164s15.273-3.055,16.291,0S711.695,38.888,711.695,38.888z"/>
<path style="fill:#F9F7EF;" d="M793.149,965.426c-1.018,1.018,3.055,12.218-11.2,10.182c-14.254-2.036-20.363-2.036-20.363-8.145
	c0-6.109,0-6.109,9.164-9.164c9.164-3.055,15.273-3.055,16.291,0C788.058,961.353,793.149,965.426,793.149,965.426z"/>
<path style="fill:#F9F7EF;" d="M782.967,67.397c0,0,5.091,9.164-2.036,13.236c-7.127,4.073-21.382,3.055-25.454-6.109
	s-2.036-12.218-9.164-14.254s-15.273-2.036-12.218-8.145s12.218-10.182,18.327-7.127c6.109,3.055,3.055,8.145,14.254,11.2
	S782.967,67.397,782.967,67.397z"/>
<path style="fill:#F9F7EF;" d="M799.258,24.633c0,0-1.018,5.091-9.164,5.091s-11.2,0-13.236-7.127
	c-2.036-7.127-9.164-5.091-2.036-11.2s15.273,0,19.345,2.036S799.258,24.633,799.258,24.633z"/>
<path style="fill:#F9F7EF;" d="M829.803,952.189c0,0-1.018,5.091-9.164,5.091s-11.2,0-13.236-7.127
	c-2.036-7.127-9.164-5.091-2.036-11.2c7.127-6.109,15.273,0,19.345,2.036C828.785,943.026,829.803,952.189,829.803,952.189z"/>
<path style="fill:#F9F7EF;" d="M759.549,16.488c0,0-4.073,7.127-9.164,6.109s-14.254-5.091-12.218-10.182
	c2.036-5.091,3.055-6.109,10.182-4.073C755.476,10.379,759.549,16.488,759.549,16.488z"/>
<path style="fill:#F9F7EF;" d="M653.659,37.87c0,0-26.473,9.164-34.618,3.055s-8.145-8.145-13.236-9.164
	c-5.091-1.018-5.091-11.2,0-15.273c5.091-4.073,0-10.182,16.291-6.109s30.545,8.145,31.563,15.273
	C654.677,32.779,653.659,37.87,653.659,37.87z"/>
<path style="fill:#F9F7EF;" d="M529.442,155.978c0,0-26.473,9.164-34.618,3.055s-8.145-8.145-13.236-9.164
	c-5.091-1.018-5.091-11.2,0-15.273c5.091-4.073,0-10.182,16.291-6.109s30.545,8.145,31.563,15.273S529.442,155.978,529.442,155.978z
	"/>
<path style="fill:#F9F7EF;" d="M698.459,78.597c0,0-15.273,22.4-27.491,21.382c-12.218-1.018-8.145,0-16.291-4.073
	c-8.145-4.073-12.218-9.164-10.182-17.309c2.036-8.145-3.055-16.291,14.254-18.327c17.309-2.036,27.491-5.091,34.618,5.091
	S698.459,78.597,698.459,78.597z"/>
<path style="fill:#F9F7EF;" d="M186.318,384.049c0,0-2.036,8.145-20.363,10.182s-27.491,7.127-31.563-5.091
	s5.091-26.473,18.327-28.509s39.709,3.055,42.763,10.182C198.536,377.94,186.318,384.049,186.318,384.049z"/>
<path style="fill:#F9F7EF;" d="M96.718,378.958c0,0,1.018,12.218-7.127,11.2c-8.145-1.018-7.127-3.055-14.254-5.091
	s-13.236,5.091-14.254-2.036c-1.018-7.127,0-16.291,13.236-18.327s20.363,3.055,22.4,7.127S96.718,378.958,96.718,378.958z"/>
<path style="fill:#F9F7EF;" d="M197.517,324.995c0,0,4.073,8.145-12.218,13.236c-16.291,5.091-31.563,1.018-30.545-3.055
	s-7.127-11.2,4.073-14.254c11.2-3.055,22.4-8.145,32.582-3.055C201.59,322.958,197.517,324.995,197.517,324.995z"/>
<path style="fill:#F9F7EF;" d="M135.409,340.267c0,0,0,11.2-17.309,11.2s-31.563,3.055-32.582-6.109
	c-1.018-9.164-2.036-21.382,12.218-20.363C111.991,326.013,128.282,331.104,135.409,340.267z"/>
<path style="fill:#F9F7EF;" d="M187.336,291.395c0,0-1.018,12.218-18.327,10.182s-17.309-4.073-17.309-12.218
	s-2.036-11.2,7.127-12.218c9.164-1.018,15.273,0,23.418,6.109S187.336,291.395,187.336,291.395z"/>
<path style="fill:#F9F7EF;" d="M106.9,285.286c0,2.036-2.036,6.109-6.109,4.073s-8.145-6.109-3.055-7.127
	C102.827,281.213,106.9,285.286,106.9,285.286z"/>
<path style="fill:#F9F7EF;" d="M790.094,1007.171c0,2.036-2.036,6.109-6.109,4.073c-4.073-2.036-8.145-6.109-3.055-7.127
	C786.022,1003.098,790.094,1007.171,790.094,1007.171z"/>
<path style="fill:#F9F7EF;" d="M16.094,1046.171c0,2.036-2.036,6.109-6.109,4.073s-8.145-6.109-3.055-7.127
	S16.094,1046.171,16.094,1046.171z"/>
<path style="fill:#F9F7EF;" d="M167.99,257.795c0,0-7.127,6.109-11.2,4.073s-12.218-12.218-8.145-13.236s12.218-1.018,15.273,3.055
	S167.99,257.795,167.99,257.795z"/>
<path style="fill:#F9F7EF;" d="M1685.069,32.779c0,0,6.109,0,3.055,6.109c-3.055,6.109-20.364-1.018-19.345-8.145
	s5.091-10.182,10.182-7.127C1684.05,26.67,1685.069,32.779,1685.069,32.779z"/>
<path style="fill:#F9F7EF;" d="M1639.251,23.615c0,0-3.055,12.218-11.2,4.073s-10.182-15.273-2.036-18.327s22.4-3.055,23.418,5.091
	C1650.451,22.597,1639.251,23.615,1639.251,23.615z"/>
<path style="fill:#F9F7EF;" d="M766.676,939.971c0,0-3.055,12.218-11.2,4.073s-10.182-15.273-2.036-18.327
	c8.145-3.055,22.4-3.055,23.418,5.091C777.876,938.953,766.676,939.971,766.676,939.971z"/>
<path style="fill:#F9F7EF;" d="M1720.705,19.543c0,0,1.018-8.145,13.236-3.055c12.218,5.091,11.2,7.127,7.127,11.2
	c-4.073,4.073-8.145,4.073-14.254,0S1720.705,19.543,1720.705,19.543z"/>
<path style="fill:#F9F7EF;" d="M16.283,741.427c0,0,1.018-8.145,13.236-3.055c12.218,5.091,11.2,7.127,7.127,11.2
	s-8.145,4.073-14.254,0S16.283,741.427,16.283,741.427z"/>
<path style="fill:#F9F7EF;" d="M1701.359,6.306c0,0,6.109,4.073,0,6.109s-14.254,2.036-13.236-3.055s6.109-11.2,10.182-8.145
	C1702.378,4.27,1701.359,6.306,1701.359,6.306z"/>
<path style="fill:#F9F7EF;" d="M1597.506,8.343c0,0,5.091,5.091,0,6.109c-5.091,1.018-21.382-2.036-19.345-6.109
	s12.218-4.073,14.254-3.055C1594.451,6.306,1597.506,8.343,1597.506,8.343z"/>
<path style="fill:#F9F7EF;" d="M1766.522,16.488c0,0-8.145,1.018-7.127-3.055s8.145-5.091,11.2-2.036
	c3.054,3.055,3.054,5.091,0,7.127C1767.541,20.561,1766.522,16.488,1766.522,16.488z"/>
<path style="fill:#F9F7EF;" d="M1660.632,51.106c0,0-7.127,6.109-11.2,4.073c-4.073-2.036-12.218-12.218-8.145-13.236
	c4.073-1.018,12.218-1.018,15.273,3.055C1659.614,49.07,1660.632,51.106,1660.632,51.106z"/>
<path style="fill:#F9F7EF;" d="M54.973,723.1c0,0-7.127,6.109-11.2,4.073c-4.073-2.036-12.218-12.218-8.145-13.236
	c4.073-1.018,12.218-1.018,15.273,3.055S54.973,723.1,54.973,723.1z"/>
</svg>
