<?xml version="1.0" encoding="iso-8859-1"?>
<!-- Generator: Adobe Illustrator 24.1.2, SVG Export Plug-In . SVG Version: 6.00 Build 0)  -->
<svg version="1.1" id="Layer_1" xmlns="http://www.w3.org/2000/svg" xmlns:xlink="http://www.w3.org/1999/xlink" x="0px" y="0px"
	 viewBox="0 0 1442.703 521.933" style="enable-background:new 0 0 1442.703 521.933;" xml:space="preserve">
<path style="opacity:0.9;fill:#F9F7EF;" d="M83.773,265.896c0,0,36-56.242,52-59.87s21,6.35,21,6.35s14-18.142,25-15.421
	s29,61.684,23,79.827s8-65.313,20-74.384s12-0.907,12-0.907s1-23.585,7-24.492s11,0,11,0s-11-31.749,0-38.099c11-6.35,22,0,22,0
	s-8-22.678,0-29.028c8-6.35,14-6.35,14-6.35s9-43.542,22-54.427s31-10.885,31-10.885s15-19.957,35-19.957s20,27.214,19,33.564
	s-8,26.307-8,26.307s12-9.978,14,1.814s-17,37.192-17,37.192s13-5.443,17,8.164s-6,39.913-17,57.149s-41,27.214-30,31.749
	c11,4.536,23-9.071,33-9.071s5,11.793,15,9.071c10-2.721,25.5-63.952,48.5-65.766c23-1.814,37.102,3.388,32,15.421
	c-5,11.793-42.5,42.181-37.5,48.531s-1-1.814,19-7.257c20-5.443,32-0.907,33-16.328s1-78.92,13-78.92c12,0,13,10.885,13,10.885
	s5-17.235,23-11.793s-7,80.734,0,84.363s-22,90.712-10,86.177s43-31.749,48-45.356c5-13.607-3-40.821,8-40.821s17,1.814,17,1.814
	s-4-26.307,0-38.099s14-8.164,14-8.164s-10-52.613,14-67.127s33,16.328,33,16.328s12-57.149,43-52.613s43,14.514,35,35.378
	s-22,62.592-22,62.592s9-13.607,17-4.536c8,9.071-23,50.799-23,50.799s8-13.607,19-9.071c11,4.536-4,26.307-4,26.307
	s18-20.864,28-16.328c10,4.536-26,37.192-27,44.449c-1,7.257-6,19.05-17,29.028s-20,46.263,13,42.635c33-3.628,54-3.628,52-31.749
	s-8-40.821,10-39.913c18,0.907,40,14.514,40,14.514s-3-25.399,13-25.399s23,9.978,23,9.978s13-69.849,62-60.777s33,62.592,33,62.592
	s25-12.7,28-1.814c3,10.885-10,22.678-10,22.678s10-9.071,16,1.814c6,10.885-20,27.214-20,27.214s38,9.978,59,0
	c21-9.978,32-10.885,36-30.842s-14-55.335,0-63.499c14-8.164,20,9.978,20,9.978s-3-71.663,35-64.406s32,39.006,32,39.006
	s2-23.585,14-13.607s11,55.335,11,55.335s-6-13.607,13-7.257s14,48.985,14,48.985s4-19.05,16-10.885c12,8.164,0,43.542,0,43.542
	s6-8.164,12-6.35c6,1.814,0,13.607,0,13.607s19-29.028,31-28.121c12,0.907,11,14.514,11,14.514s41-29.935,60-10.885
	s-7,39.913-7,39.913s7-6.35,19,0c12,6.35-28,54.427-28,54.427s6-9.978,25,0s5,32.656,5,32.656s9-8.164,16-4.536
	c7,3.628-14,21.771-14,21.771s28,11.793,15,23.585s-158,35.378-213,37.192s-164-5.443-269,0s-135-30.842-180-21.771
	c-45,9.071-159,41.728-244,22.678c-85-19.05-227,7.257-259-9.978c-32-17.235-21-50.799-62-56.242s-86,6.35-116-7.257
	s-39-45.356-31-71.663c8-26.307,32-68.034,55-75.291C80.773,253.196,83.773,265.896,83.773,265.896z"/>
<path style="opacity:0.8;fill:#F9F7EF;" d="M75.273,382.751c0,0-16-37,27-48s49,10,49,10s43-46,62-29s-24,57-24,57s30-23,34-6
	s-42,92-75,87s-52-13-70-24s-32-51-14-52S75.273,382.751,75.273,382.751z"/>
<path style="opacity:0.8;fill:#F9F7EF;" d="M265.273,446.751c0,0-13-39,15-47s41,0,41,0s5-36,33-42s37-14,38,0s-3,24-3,24
	s47-30,61-21s0,34,0,34s46-30,53-22s-28,41-16,43s35-17,32,7s-30,53-30,53s22-20,26,0c4,20-38,38-78,43s-75-2-100-6
	c-25-4-50-14-68-17s-28-23-16-36S265.273,446.751,265.273,446.751z"/>
<path style="opacity:0.8;fill:#F9F7EF;" d="M608.273,404.751c0,0-27-51-3-50s50,25,50,25s-10-28,8-28s68,44,68,44s-10-17,19-18
	s35,11,66,23s64-6,104,11s61,8,61,39s-35,49-61,47s-102-28-136-20s-89,30-114,13s-27-10-60-32s-51-46-32-51
	S608.273,404.751,608.273,404.751z"/>
<path style="opacity:0.8;fill:#F9F7EF;" d="M1092.273,435.751c0,0,12-22,45-22s29,17,29,17s33-10,61,5s58,8,50,43s-31,26-61,29
	s-9,13-46,14s-65-2-91-12c-26-10-49-19-49-48s14-52,38-39S1092.273,435.751,1092.273,435.751z"/>
<path style="opacity:0.8;fill:#F9F7EF;" d="M1053.273,375.751c0,0-89,7-95-4s10-41,54-30c44,11,43,16,70,17s54-1,49,12s-26,17-46,15
	S1053.273,375.751,1053.273,375.751z"/>
<path style="opacity:0.8;fill:#F9F7EF;" d="M1166.273,379.751c0,0,7-7,37,0s69,26,29,26s-62-8-63-15
	S1166.273,379.751,1166.273,379.751z"/>
<path style="opacity:0.8;fill:#F9F7EF;" d="M429.273,38.751c6-11,12-14,32-13s45,0,36,13s-22,21-41,14
	S429.273,38.751,429.273,38.751z"/>
<path style="opacity:0.8;fill:#F9F7EF;" d="M490.392,11.751c0,0,24.042,10,31.255,4c7.213-6,0-19-16.829-15
	C487.988,4.751,490.392,11.751,490.392,11.751z"/>
<path style="opacity:0.8;fill:#F9F7EF;" d="M492.273,69.751c0,0-5-1-3-5s14-3,22-2c8,1,18,4,12,7s-11,4-18,4
	C498.273,73.751,492.273,69.751,492.273,69.751z"/>
<path style="opacity:0.8;fill:#F9F7EF;" d="M517.273,41.751c0,0,0-9,7-8s11,5,11,7s-3,4-9,4S517.273,41.751,517.273,41.751z"/>
<path style="opacity:0.8;fill:#F9F7EF;" d="M855.273,63.751c0,0,0-4,9-4s12,1,10,4s-11,6-14,5S855.273,63.751,855.273,63.751z"/>
<path style="opacity:0.8;fill:#F9F7EF;" d="M825.273,98.751c0,0,10-7,28-3s30,7,18,12s-14,9-25,6s-21-1-21-7
	S825.273,98.751,825.273,98.751z"/>
<path style="opacity:0.8;fill:#F9F7EF;" d="M900.273,92.751c0,0-9,0-5-6s8-3,8-3s0-13,11-9s19,14,17,18
	S900.273,92.751,900.273,92.751z"/>
<path style="opacity:0.8;fill:#F9F7EF;" d="M908.273,132.751c0,0,6-8,20-5s30,3,28,10s5,16-17,13s-22,2-28-5
	S908.273,132.751,908.273,132.751z"/>
<path style="opacity:0.8;fill:#F9F7EF;" d="M986.273,114.751c1,1-10-8,1-7s19,4,13,7S986.273,114.751,986.273,114.751z"/>
<path style="opacity:0.8;fill:#F9F7EF;" d="M971.273,138.751c0,0,3-4,11-2s12,2,8,5s-9,4-14,2S971.273,138.751,971.273,138.751z"/>
<path style="opacity:0.8;fill:#F9F7EF;" d="M1016.273,137.751c0,0,1-7,8-6c7,1,8-1,8,4s0,9-6,7
	C1020.273,140.751,1016.273,137.751,1016.273,137.751z"/>
<path style="opacity:0.8;fill:#F9F7EF;" d="M1350.273,157.751c0,0,6-6,23-6s28,6,28,10s-6,10-20,10s-28,1-31-5
	S1350.273,157.751,1350.273,157.751z"/>
<path style="opacity:0.8;fill:#F9F7EF;" d="M1253.273,161.751c0,0,10-9,28-10s46-1,45,5s7,12-14,15s-29,5-43,3s-16-5-20-3s-12-2-8-6
	S1253.273,161.751,1253.273,161.751z"/>
<path style="opacity:0.8;fill:#F9F7EF;" d="M1339.273,194.751c0,0,6-5,10-4s5-3,11,0s20,23,6,22s-23-2-23-6
	S1339.273,194.751,1339.273,194.751z"/>
<path style="opacity:0.8;fill:#F9F7EF;" d="M1415.273,193.751c0,0,10-6,19-4s11,7,5,9s-13,4-18,2S1415.273,193.751,1415.273,193.751
	z"/>
</svg>
