<?xml version="1.0" encoding="iso-8859-1"?>
<!-- Generator: Adobe Illustrator 24.1.2, SVG Export Plug-In . SVG Version: 6.00 Build 0)  -->
<svg version="1.1" id="Layer_1" xmlns="http://www.w3.org/2000/svg" xmlns:xlink="http://www.w3.org/1999/xlink" x="0px" y="0px"
	 viewBox="0 0 1331.24 404.346" style="enable-background:new 0 0 1331.24 404.346;" xml:space="preserve">
<path style="opacity:0.9;fill:#F9F7EF;" d="M180.778,261.509c0,0-21.989,13.194-24.188-4.398
	c-2.199-17.592,24.188-40.681,39.581-35.183c15.393,5.497,14.293,9.895,14.293,9.895s0-20.89-18.691-21.989
	c-18.691-1.099-65.968,1.099-72.565-8.796c-6.597-9.895-15.393-24.188-7.696-34.084s15.393-13.194,18.691-10.995
	c3.298,2.199-17.592-8.796-10.995-21.989c6.597-13.194,24.165-38.907,47.277-52.775c21.99-13.194,42.88-15.393,56.073-12.094
	s26.387,10.995,27.487,13.194c1.099,2.199-3.298-10.995,10.995-10.995c14.293,0,29.686,9.895,30.785,21.989
	c1.099,12.094,0,21.989,9.895,20.89c9.895-1.099,34.084-17.592,16.492-21.989c-17.592-4.398-50.576,4.398-45.078-28.586
	s46.178-34.084,51.675-30.785s-7.678-3.317,8.796-19.791C355.594-8.961,435.5,0.696,455.647,14.128
	c9.895,6.597,10.995,17.592,10.995,17.592s10.995-5.497,16.492,7.696s0,19.791,0,19.791s8.796-8.796,12.094-2.199
	c3.298,6.597-9.895,19.791,10.995,20.89c20.89,1.099,38.244-33.773,61.571-47.277c20.89-12.094,43.979-10.995,58.272-3.298
	s6.597,23.089,6.597,23.089s49.476-35.183,94.555-25.288c45.078,9.895,70.974,18.698,81.361,41.78
	c9.895,21.989,9.895,41.78-7.696,47.277c-17.592,5.497-24.188,16.492-24.188,16.492s19.791-10.995,18.691,3.298
	s-13.194,27.487-21.99,28.586c-8.796,1.099-13.194,6.597-13.194,6.597s16.492-5.497,17.592,3.298
	c1.099,8.796-3.298,12.094-3.298,12.094l-10.995,6.597c0,0,113.246-29.686,117.644-4.398s-1.099,37.382-13.194,43.979
	c-12.094,6.597,67.068-26.387,81.361-7.696c14.293,18.691,15.393,20.89,3.298,34.084c-12.094,13.194-12.094,13.194-12.094,13.194
	s29.686,5.497,25.288-2.199s-38.482-57.173-17.592-83.56c20.89-26.387,48.377-15.393,51.675-6.597
	c3.298,8.796,3.298,15.393,3.298,15.393s3.298-30.785,21.989-34.084c18.691-3.298,31.885-2.199,39.581,3.298
	c7.696,5.497,9.895,34.084,5.497,38.482c-4.398,4.398,2.199-12.094,18.691-4.398c16.492,7.696,13.194,25.288,12.094,29.686
	c-1.099,4.398,15.393-47.277,47.277-53.874s32.984,7.696,32.984,7.696s17.592-25.288,45.078-9.895
	c27.487,15.393,32.984,34.084,26.387,49.476s-10.995,23.089-10.995,23.089s35.183-21.99,58.272-1.099
	c23.089,20.89-10.995,42.88-6.597,50.576c4.398,7.696,46.178-4.398,36.283,17.592s-24.188,23.089-29.686,23.089
	c-5.497,0,19.791-3.298,12.094,7.696c-7.696,10.995-352.931,6.597-363.926,7.696c-10.995,1.099-460.68-14.293-515.654-15.393
	c-54.974-1.099-239.685-10.995-249.581-19.791c-9.895-8.796-9.895-25.288,3.298-29.686s-20.89,5.497-21.989-6.597
	C163.186,264.808,175.28,263.708,180.778,261.509z"/>
<path style="opacity:0.8;fill:#F9F7EF;" d="M26.862,333.406c0.775-10.714,27.208-24.742,34.997-22.24
	c7.789,2.502,0.031,0.448-1.058-15.155c-1.375-19.701,26.785-30.804,36.407-23.861c9.622,6.943,11.137,6.837,11.912-3.877
	s4.828-39.932,26.785-30.804c15.994,6.649,18.503,3.277,23.684,12.053c7.327,12.411,4.406,19.49,4.406,19.49
	s5.11-14.062,15.824-13.287c10.714,0.775,5.181,8.776,14.274,8.141c9.093-0.635,17.974-4.3,26.398,7.295
	c7.143,9.833-0.669,12.23,4.194,16.459c4.864,4.229,6.697,8.67,3.877,11.912c-2.819,3.242,16.52-2.609,22.944,1.444
	c5.836,3.682,18.948,13.646,19.878,22.979c0.904,9.07,6.662,29.992-20.829,28.865s-202.3,3.458-211.922-3.484
	C29.012,342.394,26.862,333.406,26.862,333.406z"/>
<path style="opacity:0.8;fill:#F9F7EF;" d="M37.24,171.849c0,0,6-8,13-3s7,15-9,18s-36,6-40-2c-3.256-6.512,0.185-15.037,7-21
	c8-7,20-8,26-1C40.414,170.052,37.24,171.849,37.24,171.849z"/>
<path style="opacity:0.8;fill:#F9F7EF;" d="M551.24,211.849c0,0,2-14,19-14c18,0,20.092,12.677,18,20c-2,7-5.352,13.62-20,17
	c-13,3-24.632,1.184-33-7c-10.706-10.471-3.667-24.79,4-25C544.238,202.712,551.24,211.849,551.24,211.849z"/>
<path style="opacity:0.8;fill:#F9F7EF;" d="M871.809,353.525c0,0-14.346-36.71,8.433-53.044
	c22.06-15.819,41.795-13.427,58.216-5.075c16.421,8.351,23.569,19.348,23.569,19.348s-6.824-14.861-0.52-22.915
	c8.084-10.328,18.546-5.29,24.371,1.07s5.491,13.976,5.491,13.976s2.326-18.211,12.921-16.22
	c10.595,1.991,17.944,8.418,16.153,14.444c-1.791,6.026-3.782,16.621-3.782,16.621s13.656-32.975,29.156-38.4
	c15.499-5.424,29.208-4.822,36.623,0.081c7.415,4.904,10.395,6.561,11.651,12.72c1.256,6.16-0.535,12.186-0.535,12.186
	s11.531-19.333,29.542-12.438c18.011,6.895-1.605,36.557-1.605,36.557s21.726-8.203,24.371,1.07
	c2.645,9.273,5.692,9.407-0.735,16.755c-6.427,7.349-14.244,11.584-14.244,11.584s13.909-3.968,16.421,8.351
	c2.512,12.319,3.433,26.095-12.066,31.519c-15.499,5.424-277.822,1.54-285.238-3.363c-7.415-4.904-18.078-5.372-22.046-19.281
	c-3.968-13.909,1.605-36.557,18.36-35.821C863.071,343.985,871.809,353.525,871.809,353.525z"/>
<path style="opacity:0.8;fill:#F9F7EF;" d="M694.24,168.849c0,0-15-17,0-30c11.56-10.019,20,0,20,0s7.923-28.264,35-36
	c28-8,58.151,3.151,68,13c15,15-3,40-3,40s14.563-12.066,33-4c16,7,22,11,24,30c2.566,24.381-2,35-24,35s-159-1-175-9s-21-31-3-39
	S694.24,168.849,694.24,168.849z"/>
</svg>
