<?xml version="1.0" encoding="iso-8859-1"?>
<!-- Generator: Adobe Illustrator 24.1.2, SVG Export Plug-In . SVG Version: 6.00 Build 0)  -->
<svg version="1.1" id="Layer_1" xmlns="http://www.w3.org/2000/svg" xmlns:xlink="http://www.w3.org/1999/xlink" x="0px" y="0px"
	 viewBox="0 0 1747.719 830.84" style="enable-background:new 0 0 1747.719 830.84;" xml:space="preserve">
<path style="opacity:0.8;fill:#F9F7EF;" d="M1663.045,369.934c-3.518,5.278,31.665-3.518,31.665,12.314
	c0,15.833-72.126,31.665-98.514,28.147c-26.388-3.518-123.143-33.424-123.143-24.629c0,8.796-10.555,42.22-61.571,51.016
	c-51.016,8.796-43.98,14.073-43.98,14.073s-15.833,5.278,3.518,8.796c19.351,3.518,28.147,31.665,80.922,28.147
	c52.775-3.518,124.902-26.388,161.845-21.11c36.943,5.278,63.331,28.147,38.702,38.702c-23.766,10.186-40.989,18.735-42.15,19.333
	c2.867-1.038,91.548-32.862,100.203,0.018c8.796,33.424-36.943,79.163-70.367,84.441c-33.425,5.278-68.608,1.759-51.016,7.037
	c17.592,5.278,56.294-12.314,68.608,7.037c12.314,19.351-100.273,77.404-142.494,84.441s-142.494,5.278-184.714-14.073
	c-33.759-15.463-56.259-10.696-90-19.861c-18.947,9.781-57.825,17.398-107.028,19.861c-70.367,3.518-314.893-12.314-383.502-5.278
	c-68.608,7.037-327.208,24.629-372.947,5.278c-45.739-19.351-43.98-24.629-87.959-21.11c-43.98,3.518-87.959-17.592-87.959-17.592
	s-24.629-10.555-22.869-22.869c1.759-12.314-21.11,0-15.833-17.592c5.278-17.592,86.2-38.702,86.2-38.702
	s-61.571-7.037-65.09-22.869c-3.518-15.833-5.278-33.424-5.278-33.424s5.278-12.314-15.833-14.073s-43.98-17.592-17.592-31.665
	c26.388-14.073,58.053-45.739,82.682-38.702c24.629,7.037,17.592,12.314,38.702,15.833c21.11,3.518,42.22-17.592,42.22-17.592
	s12.314-29.906-7.037-42.22c-19.351-12.314-49.257-33.424-38.702-58.053c10.555-24.629,63.331-72.126,84.441-63.331
	c21.11,8.796,29.906-17.592,43.98-10.555c14.073,7.037,24.629,14.073,22.869,7.037c-1.759-7.037-38.702-56.294-38.702-66.849
	c0-10.555-24.629,0-28.147-17.592s22.869-43.98,22.869-43.98s-1.759-31.665,19.351-22.869c21.11,8.796,35.184,17.592,42.22,17.592
	c7.037,0-24.629-35.184-15.833-52.775c8.796-17.592,87.959-77.404,117.865-68.608c29.906,8.796,29.906,29.906,29.906,29.906
	s15.833,5.278,15.833,15.833s0,17.592,0,17.592s8.796-31.665,29.906-17.592c21.11,14.073,22.869,35.184,22.869,35.184
	s3.518-24.629,24.629-15.833s17.592,19.351,22.869,24.629c5.278,5.278,14.073,24.629,14.073,43.98s5.278-12.314,12.314-3.518
	c7.037,8.796,8.796,17.592,8.796,17.592l-7.037,22.869c0,0,26.388-24.629,24.629,1.759c-1.759,26.388-42.22,73.886-26.388,77.404
	s7.037-15.833,31.665,0s51.016,29.906,58.053,47.498c7.037,17.592,21.11,35.184,21.11,35.184s7.037-21.11,12.314-35.184
	c5.278-14.073-7.037-21.11,10.555-40.461c17.592-19.351,26.388-19.351,33.424-22.869c7.037-3.518-7.037-24.629,15.833-28.147
	c22.869-3.518,40.461,14.073,47.498,10.555c7.037-3.518-7.037-43.98,28.147-65.09c35.184-21.11,42.22-8.796,56.294-19.351
	c14.073-10.555,36.943-38.702,63.331-21.11c26.388,17.592,28.147,52.775,28.147,52.775s15.833-29.906,33.424-29.906
	c8.743,0,22.253,2.604,34.287,7.389c6.403-4.363,15.674-8.18,23.766-2.111c14.073,10.555,21.11,38.702,36.943,33.424
	s-7.037-24.629,10.555-28.147c14.707-2.938,31.877,0.264,37.101,1.39c-10.027-2.445-63.489-16.835-63.489-47.128
	c0-33.424,8.796-80.922,36.943-70.367c28.147,10.555,42.22,33.424,47.498,28.147c5.278-5.278,17.592-73.886,56.294-66.849
	s66.849,54.535,82.682,63.331s14.073-49.257,45.739-47.498s75.645,29.906,75.645,43.98s-12.314,15.833,0,17.592
	c12.314,1.759,42.22-10.555,52.775,14.073c10.555,24.629-5.277,36.943-14.073,36.943s-12.314,3.518-3.518,5.278
	s38.702,21.11,21.11,31.665s-52.776,17.592-52.776,17.592l-8.796,10.555c0,0,29.906-7.037,49.257-12.314
	c19.351-5.278,61.571-29.906,70.367-28.147s24.629-21.11,36.943-8.796c12.314,12.314-8.796,38.702-8.796,38.702
	s19.351-3.518,22.869,10.555c3.518,14.073-12.314,21.11-28.147,38.702s-47.498,35.184-47.498,35.184s79.163-5.278,75.645,15.833
	c-3.518,21.11-49.257,17.592-31.665,26.388c17.592,8.796,38.702-7.037,43.98,17.592
	C1752.764,352.342,1666.564,364.656,1663.045,369.934z"/>
<path style="opacity:0.8;fill:#F9F7EF;" d="M201.165,654.921c0,0-24.629-10.555-22.869-22.869c1.759-12.314-21.11,0-15.833-17.592
	c5.278-17.592,86.2-38.702,86.2-38.702s-61.571-7.037-65.09-22.869c-3.518-15.833-5.278-33.424-5.278-33.424
	s5.278-12.314-15.833-14.073s-43.98-17.592-17.592-31.665c26.388-14.073,58.053-45.739,82.682-38.702
	c24.629,7.037,17.592,12.314,38.702,15.833c21.11,3.518,42.22-17.592,42.22-17.592s12.314-29.906-7.037-42.22
	c-19.351-12.314-49.257-33.424-38.702-58.053c10.555-24.629,63.331-72.126,84.441-63.331c21.11,8.796,29.906-17.592,43.98-10.555
	c14.073,7.037,24.629,14.073,22.869,7.037c-1.759-7.037-38.702-56.294-38.702-66.849c0-10.555-24.629,0-28.147-17.592
	s22.869-43.98,22.869-43.98s-1.759-31.665,19.351-22.869c21.11,8.796,35.184,17.592,42.22,17.592
	c7.037,0-24.629-35.184-15.833-52.775c8.796-17.592,87.959-77.404,117.865-68.608c29.906,8.796,29.906,29.906,29.906,29.906
	s15.833,5.278,15.833,15.833s0,17.592,0,17.592s8.796-31.665,29.906-17.592c21.11,14.073,22.869,35.184,22.869,35.184
	s3.518-24.629,24.629-15.833s17.592,19.351,22.869,24.629c5.278,5.278,14.073,24.629,14.073,43.98s5.278-12.314,12.314-3.518
	c7.037,8.796,8.796,17.592,8.796,17.592l-7.037,22.869c0,0,26.388-24.629,24.629,1.759c-1.759,26.388-42.22,73.886-26.388,77.404
	s7.037-15.833,31.665,0s51.016,29.906,58.053,47.498c7.037,17.592,21.11,35.184,21.11,35.184s7.037-21.11,12.314-35.184
	c5.278-14.073-7.037-21.11,10.555-40.461c17.592-19.351,26.388-19.351,33.424-22.869c7.037-3.518-7.037-24.629,15.833-28.147
	c22.869-3.518,40.461,14.073,47.498,10.555c7.037-3.518-7.037-43.98,28.147-65.09c35.184-21.11,42.22-8.796,56.294-19.351
	c14.073-10.555,36.943-38.702,63.331-21.11c26.388,17.592,28.147,52.775,28.147,52.775s15.833-29.906,33.424-29.906
	s54.535,10.555,59.812,28.147c5.278,17.592-28.147,73.886-28.147,73.886s28.147-35.184,54.535-15.833
	c26.388,19.351,19.351,28.147,40.461,33.424c21.11,5.278,31.665,0,33.425,19.351c1.759,19.351-7.037,63.331-21.11,72.126
	c-14.073,8.796-38.702,15.833-38.702,15.833l-98.514,28.147c0,0,47.498-10.555,52.776,5.278
	c5.277,15.833-28.147,45.739-35.184,47.498s22.869,8.796,14.073,19.351c-8.796,10.555-12.314,12.314-12.314,12.314
	s93.237-15.833,105.551,0c12.314,15.833-38.702,31.665-19.351,40.461s28.147-21.11,45.739,15.833s22.869,51.016,1.759,66.849
	c-21.11,15.833-70.367,31.665-70.367,31.665s22.869,5.278,22.869,21.11c0,15.833-49.257,29.906-119.624,33.424
	c-70.367,3.518-314.893-12.314-383.502-5.278c-68.608,7.037-327.208,24.629-372.947,5.278c-45.739-19.351-43.98-24.629-87.959-21.11
	C245.145,676.032,201.165,654.921,201.165,654.921z"/>
<path style="opacity:0.8;fill:#F9F7EF;" d="M70.521,369.934c0,0-12.314-12.314,5.278-17.592c17.592-5.278,31.665-5.278,31.665-5.278
	s-7.037-7.037,0-12.314c7.037-5.278,43.98-22.869,54.535-19.351c10.555,3.518,40.461,7.037,36.943,14.073
	c-3.518,7.037-12.314,15.833-12.314,24.629c0,8.796-33.424,15.833-43.98,21.11c-10.555,5.278-22.869,17.592-38.702,17.592
	s-35.184-3.518-36.943-10.555C65.243,375.212,70.521,369.934,70.521,369.934z"/>
<path style="opacity:0.8;fill:#F9F7EF;" d="M207.431,377.371c0,0-5.278-8.796,10.555-8.796s21.11-5.278,22.869,3.518
	c1.759,8.796,1.759,10.555-8.796,12.314s-12.314,1.759-17.592,0S207.431,377.371,207.431,377.371z"/>
<path style="opacity:0.8;fill:#F9F7EF;" d="M72.745,561.015c0,0,28.147-19.351,54.535-15.833s38.702,8.796,26.388,15.833
	s-21.11,15.833-42.22,14.073c-21.11-1.759-45.739,7.037-45.739,0C65.708,568.052,72.745,561.015,72.745,561.015z"/>
<path style="opacity:0.8;fill:#F9F7EF;" d="M1.39,469.873c0,0-7.037-15.833,10.555-29.906c17.592-14.073,24.629-8.796,24.629-8.796
	s26.388-22.869,47.498-19.351s22.869,14.073,38.702,12.314s33.424-10.555,49.257-7.037c15.833,3.518,45.739-8.796,51.016,3.518
	c5.278,12.314-7.037,38.702-31.665,45.739c-24.629,7.037-36.943,15.833-36.943,26.388c0,10.555-17.592,24.629-29.906,22.869
	c-12.314-1.759-29.906-10.555-40.461-8.796c-10.555,1.759-21.11,14.073-28.147,8.796c-7.037-5.278-31.665-15.833-31.665-22.869
	C24.259,485.705,1.39,469.873,1.39,469.873z"/>
<path style="opacity:0.8;fill:#F9F7EF;" d="M173.019,614.46c0,0,47.498-35.184,80.922-31.665c33.424,3.518,84.441,1.759,86.2,15.833
	c1.759,14.073,10.555,40.461-14.073,43.98s-26.388,0-49.257,10.555c-22.869,10.555-19.351,17.592-43.98,10.555
	c-24.629-7.037-36.943-8.796-38.702-21.11S173.019,632.052,173.019,614.46z"/>
<path style="opacity:0.8;fill:#F9F7EF;" d="M239.867,698.901c0,0,1.759-14.073,19.351-14.073s19.351-10.555,21.11,0
	c1.759,10.555-3.518,19.351-14.073,21.11C255.7,707.697,243.386,707.697,239.867,698.901z"/>
<path style="opacity:0.8;fill:#F9F7EF;" d="M356.026,695.832c0,0,3.518-24.629,10.555-24.629s51.016-35.184,86.2-26.388
	s151.29,0,160.086,24.629c8.796,24.629,3.518,54.535-26.388,61.571s-29.906,1.759-47.498,12.314
	c-17.592,10.555-38.702,36.943-72.126,29.906s-51.016,8.796-65.09,5.278c-14.073-3.518-43.98,0-45.739-15.833
	c-1.759-15.833,8.796-22.869,0-31.665S356.026,695.832,356.026,695.832z"/>
<path style="opacity:0.8;fill:#F9F7EF;" d="M1392.132,327.171c0,0-52.775-3.518-49.257-28.147
	c3.518-24.629,35.184-38.702,35.184-38.702s-5.278-29.906,26.388-36.943s52.775,0,52.775,0s21.11-43.98,45.739-43.98
	s35.184,19.351,49.257,22.869s49.257-8.796,59.812,10.555c10.555,19.351-21.11,38.702-15.833,51.016
	c5.278,12.314,15.833,43.98-1.759,52.775s-24.629,1.759-22.869,15.833c1.759,14.073-17.592,28.147-38.702,22.869
	c-21.11-5.278-15.833-8.796-35.184-5.278c-19.351,3.518-58.053,5.278-77.404-1.759c-19.351-7.037-56.294-8.796-47.498-15.833
	C1381.577,325.411,1392.132,327.171,1392.132,327.171z"/>
<path style="opacity:0.8;fill:#F9F7EF;" d="M891.063,654.077c0,0,47.498-49.257,80.922-36.943s35.184,24.629,61.571,17.592
	c26.388-7.037,82.682-19.351,94.996,0c12.314,19.351,28.147,24.629,8.796,35.184c-19.351,10.555-22.869,12.314-35.184,28.147
	c-12.314,15.833-65.09,54.535-87.959,45.739c-22.869-8.796-47.498,0-72.126-5.278s-82.682-17.592-80.922-40.461
	C862.916,675.187,891.063,654.077,891.063,654.077z"/>
<path style="opacity:0.8;fill:#F9F7EF;" d="M723.642,148.277c0,0-12.314-17.592-5.278-33.424s19.351-31.665,19.351-31.665
	s-10.555-29.906,21.11-33.424S815.12,77.91,815.12,77.91s28.147-58.053,66.849-52.775c38.702,5.278,42.22,5.278,47.498,24.629
	s5.278,26.388,12.314,28.147c7.037,1.759,24.629-15.833,42.22-3.518c17.592,12.314,31.665,28.147,26.388,33.424
	c-5.278,5.278-15.833,8.796-8.796,10.555c7.037,1.759,29.906,0,29.906,15.833s-12.314,42.22-40.461,49.257
	s-82.682,7.037-82.682,7.037s-1.759,3.518-5.278,8.796c-3.518,5.278-110.828,21.11-126.661,15.833s-36.943-8.796-36.943-8.796
	s-14.073,8.796-29.906-5.278c-15.833-14.073-28.147-33.424-12.314-45.739C713.087,143,723.642,148.277,723.642,148.277z"/>
<path style="opacity:0.8;fill:#F9F7EF;" d="M1100.107,93.743c0,0-22.869-15.833,0-21.11c22.869-5.278,65.09-7.037,68.608,7.037
	c3.518,14.073,0,19.351,0,19.351s10.555-3.518,8.796,5.278s-36.943,14.073-51.016,15.833c-14.073,1.759-42.22-21.11-36.943-26.388
	C1094.83,88.465,1100.107,93.743,1100.107,93.743z"/>
<path style="opacity:0.8;fill:#F9F7EF;" d="M1181.03,639.089c1.759-5.278,47.498-38.702,70.367-33.424s59.812,12.314,63.331,22.869
	c3.518,10.555-19.351,7.037-31.665,17.592c-12.314,10.555-26.388,31.665-47.498,26.388c-21.11-5.278-42.22-1.759-54.535-17.592
	C1168.715,639.089,1181.03,639.089,1181.03,639.089z"/>
<path style="opacity:0.8;fill:#F9F7EF;" d="M1409.723,605.664c0,0,28.147-21.11,58.053-21.11c29.906,0,45.739,8.796,45.739,21.11
	s-15.833,21.11-21.11,17.592c-5.277-3.518-12.314-12.314-24.629-3.518c-12.314,8.796-33.424,8.796-43.979,3.518
	C1413.242,617.979,1409.723,605.664,1409.723,605.664z"/>
<path style="opacity:0.8;fill:#F9F7EF;" d="M1297.136,707.697c0,0,45.739-26.388,70.367-17.592s17.592,17.592,36.943,17.592
	c19.351,0,65.09,1.759,58.053,17.592c-7.037,15.833-31.665,17.592-26.388,21.11c5.277,3.518,26.388,10.555,17.592,17.592
	s-29.906,7.037-43.98,5.278c-14.073-1.759-15.833-8.796-24.629-5.278s-35.184,14.073-56.294,10.555
	c-21.11-3.518-47.498-7.037-43.979-15.833c3.518-8.796,8.796-3.518-5.278-10.555c-14.073-7.037-31.665-17.592-21.11-31.665
	C1268.989,702.419,1297.136,707.697,1297.136,707.697z"/>
<path style="opacity:0.8;fill:#F9F7EF;" d="M1499.441,741.121c0,0-8.796-8.796,3.518-8.796c12.314,0,28.147-7.037,29.906,0
	c1.759,7.037-7.037,14.073-17.592,14.073C1504.719,746.399,1499.441,741.121,1499.441,741.121z"/>
<path style="opacity:0.8;fill:#F9F7EF;" d="M1555.735,765.75c0,0,5.278-7.037,15.833-8.796c10.555-1.759,14.073-5.278,15.833,3.518
	s-5.278,14.073-15.833,14.073S1555.735,765.75,1555.735,765.75z"/>
<path style="opacity:0.8;fill:#F9F7EF;" d="M1525.829,820.285c0,0,10.555-19.351,29.906-15.833
	c19.351,3.518,22.869,1.759,22.869,10.555c0,8.796-10.555,15.833-22.869,15.833C1543.421,830.84,1525.829,820.285,1525.829,820.285z
	"/>
<path style="opacity:0.8;fill:#F9F7EF;" d="M1613.788,728.807c0,0,12.314-8.796,21.11-7.037c8.796,1.759,15.833,0,12.314,7.037
	c-3.518,7.037-12.314,10.555-22.869,8.796C1613.788,735.844,1613.788,728.807,1613.788,728.807z"/>
<path style="opacity:0.8;fill:#F9F7EF;" d="M1654.249,779.823c0,0,8.796-3.518,26.388-5.278c17.592-1.759,22.869-1.759,22.869,5.278
	s-7.037,14.073-24.629,14.073S1657.768,790.378,1654.249,779.823z"/>
</svg>
