<?xml version="1.0" encoding="iso-8859-1"?>
<!-- Generator: Adobe Illustrator 24.1.2, SVG Export Plug-In . SVG Version: 6.00 Build 0)  -->
<svg version="1.1" id="Layer_1" xmlns="http://www.w3.org/2000/svg" xmlns:xlink="http://www.w3.org/1999/xlink" x="0px" y="0px"
	 viewBox="0 0 516.243 311.345" style="enable-background:new 0 0 516.243 311.345;" xml:space="preserve">
<path style="opacity:0.9;fill:#F9F7EF;" d="M424,0"/>
<path style="opacity:0.9;fill:#F9F7EF;" d="M367,213c-4.004,17.349-51,35-102,28S55,199,38,188S0,162,0,141s2-45,46-39s35,26,71,22
	s75-17,103-4s35,47,67,52s35,3,54,12S370,200,367,213z"/>
<path style="opacity:0.85;fill:#F9F7EF;" d="M248,256c-27,10-140,8-172-14s-50.26-36.871-47.13-51.436S44,155,79,164s62,35,91,35
	s73-2,90,13S248,256,248,256z"/>
<path style="opacity:0.8;fill:#F9F7EF;" d="M315,72.181c8.156-11.88,50-28.671,89-15.179s61,36.261,82,41.32c21,5.06,28,0,30,10.963
	s-8,35.417-42,33.731c-34-1.687-123-5.06-140-22.768S304,88.203,315,72.181z"/>
<path style="opacity:0.8;fill:#F9F7EF;" d="M182,306c-42.671,14.668-112-3-118-27s-6-46,54-45s54,14,72,17
	s48.557,5.363,41.278,20.682C224,287,214,295,182,306z"/>
</svg>
