<?xml version="1.0" encoding="iso-8859-1"?>
<!-- Generator: Adobe Illustrator 24.1.2, SVG Export Plug-In . SVG Version: 6.00 Build 0)  -->
<svg version="1.1" id="Layer_1" xmlns="http://www.w3.org/2000/svg" xmlns:xlink="http://www.w3.org/1999/xlink" x="0px" y="0px"
	 viewBox="0 0 3778.981 627.013" style="enable-background:new 0 0 3778.981 627.013;" xml:space="preserve">
<path style="fill:#F9F7EF;" d="M20.621,344.028c0,0-33.924,0-14.75-22.124s58.998-13.275,58.998-13.275s-4.425-4.425,19.174-22.124
	s30.974-29.499,58.998-23.599s36.874,13.275,36.874,13.275s10.325-26.549,28.024-30.974c17.699-4.425,64.898-16.225,81.123-10.325
	c16.224,5.9,4.425,8.85,16.224,4.425c11.8-4.425,14.75-19.174,26.549-11.8c11.8,7.375,2.95,25.074,16.224,19.174
	c13.275-5.9,47.199-47.199,107.672-58.998c60.473-11.8,82.597-17.699,100.297,0s23.599,66.373,33.924,64.898
	c10.325-1.475,10.325-14.75,35.399-20.649c25.074-5.9,63.423,42.774,88.497,38.349c25.074-4.425,106.197-72.273,132.746-67.848
	s25.074,28.024,32.449,28.024c7.375,0,69.323-73.748,106.197-58.998c36.874,14.75,14.75,44.249,19.174,51.623
	s25.074-14.75,44.249-23.599c19.174-8.85,32.449-1.475,32.449-1.475s14.75-48.674,50.149-67.848s50.148-29.499,73.748-23.599
	c23.599,5.9,19.174,33.924,19.174,33.924s11.8-20.649,30.974-13.275c19.174,7.375-10.325,60.473-10.325,60.473
	s16.224-16.225,28.024-8.85c11.8,7.375-14.75,45.724-14.75,45.724s20.649-8.85,32.449-8.85c11.8,0,20.649,8.85,20.649,8.85
	s17.699-42.774,57.523-42.774c39.824,0,47.199,20.649,47.199,20.649s58.998-63.423,150.445-44.249
	c91.447,19.174,107.672,78.173,107.672,78.173s20.649-11.8,38.349-11.8s14.75,22.124,14.75,22.124s79.648-5.9,91.447,16.225
	c11.8,22.124,0,28.024,0,28.024s81.122-53.098,123.896,11.8s47.199,261.067-5.9,277.292c-53.098,16.224-82.597,8.85-100.297,7.375
	s-85.547-11.8-95.872-20.649c-10.325-8.85,8.85-11.8-32.449-8.85c-41.299,2.95-95.872,29.499-134.221,14.75
	c-38.349-14.75-32.449-23.599-69.323-23.599s-36.874,0-58.998,5.9c-22.124,5.9-67.848,23.599-95.872,22.124
	c-28.024-1.475-45.724-25.074-84.073-23.599c-38.349,1.475-29.499-4.425-95.872,4.425c-66.373,8.85-97.347,26.549-122.421,11.8
	c-25.074-14.75-63.423-25.074-79.648-35.399s-22.124-26.549-44.249-19.174c-22.124,7.375-67.848,35.399-78.173,28.024
	c-10.325-7.375-4.425-11.8-22.124-5.9c-17.699,5.9-129.796-8.85-156.345-16.224s-19.174,0-38.349,0
	c-19.174,0,2.95-8.85-32.449-4.425s-54.573,20.649-84.072,14.75c-29.499-5.9-72.273-13.275-84.072-23.599
	c-11.8-10.325-7.375-7.375-22.124-7.375s-119.471,19.174-174.045,0c-54.573-19.174-39.824-54.573-61.948-58.998
	s-64.898-8.85-95.872-22.124s-58.998-33.924-58.998-50.148C14.722,352.877,20.621,344.028,20.621,344.028z"/>
<path style="fill:#F9F7EF;" d="M1685.845,167.033c0,0,50.148-57.523,117.996-72.273c67.848-14.75,92.922-25.074,92.922-11.8
	s-17.699,38.349-17.699,38.349s69.323-57.523,92.922-50.148c23.599,7.375,29.499,35.399,44.249,30.974
	c14.75-4.425,126.846-81.123,169.62-72.273s75.223,19.174,64.898,53.098s-22.124,64.898-22.124,64.898s61.948-44.249,87.022-19.174
	s-7.375,69.323-7.375,69.323s50.148-33.924,79.648-30.974c29.499,2.95,79.647-10.325,98.822-29.499
	c19.175-19.174,89.972-47.199,100.297-36.874s10.325,13.275,10.325,13.275s72.273-76.698,112.096-66.373s0,85.547,0,85.547
	s22.124-28.024,32.449-5.9s-47.198,88.497-44.249,87.022s50.148-42.774,58.998-25.074c8.85,17.699-19.174,42.774-19.174,42.774
	s29.499-17.699,67.848-4.425s38.349,13.275,38.349,13.275s67.848-66.373,120.946-69.323c53.098-2.95,92.922,25.074,92.922,25.074
	s44.249-35.399,87.022-22.124c42.774,13.275,56.048,30.974,56.048,30.974s51.624-44.249,115.047-35.399s53.098,29.499,53.098,29.499
	s57.523-53.098,98.822-41.299c41.299,11.8,23.599,47.199,54.573,42.774s41.299-20.649,76.698-11.8s35.399,29.499,35.399,29.499
	s4.425-13.275,20.649-4.425c16.225,8.85,19.175,26.549,19.175,26.549s28.024-42.774,51.623-29.499s20.649,29.499,20.649,29.499
	s35.399-7.375,32.449,16.225s-50.148,51.623-50.148,51.623s20.649,0,14.75,22.124s-38.349,47.199-38.349,47.199
	s17.699-11.8,10.325,13.275c-7.375,25.074-22.124,30.974-22.124,30.974s35.399-20.649,32.449,0
	c-2.95,20.649-30.974,35.399-67.848,42.774s-131.271,97.347-171.095,82.597s-29.499-47.199-42.774-39.824
	c-13.275,7.375-19.175,41.299-56.048,41.299s-45.724,14.75-64.898,0c-19.175-14.75,0-50.148-16.225-45.724
	c-16.224,4.425-42.774,53.098-75.223,51.623c-32.449-1.475-58.998,16.225-58.998,0c0-16.224,7.375-33.924-4.425-29.499
	s-32.449,23.599-44.249,17.699c-11.8-5.9-16.225-23.599-16.225-23.599s-33.924,44.249-66.373,33.924
	c-32.449-10.325-28.024-28.024-28.024-28.024s-16.225,17.699-53.098,36.874c-36.874,19.174-39.824,44.249-75.223,44.249
	s-76.698-1.475-85.547-25.074c-8.85-23.599-11.8-33.924-11.8-33.924s-48.674,48.674-64.898,35.399
	c-16.225-13.275-28.024-32.449-28.024-42.774c0-10.325-22.124,26.549-41.299,26.549c-19.174,0-36.874-17.699-30.974-33.924
	c5.9-16.224-75.223,82.597-100.297,73.748c-25.074-8.85-22.124-44.249-22.124-44.249s-17.699,30.974-39.824,22.124
	s-10.325-58.998-10.325-58.998s-75.223,51.623-95.872,50.148c-20.649-1.475-26.549-22.124-26.549-22.124
	s-39.824,45.724-63.423,39.824c-23.599-5.9-23.599-13.275-23.599-13.275s-57.523,56.048-82.597,45.724s-32.449-33.924-32.449-33.924
	s-51.624,35.399-75.223,25.074c-23.599-10.325-39.824-26.549-39.824-26.549s-119.471,25.074-150.445,10.325
	c-30.974-14.75-51.623-50.148-51.623-50.148s-104.722,41.299-144.546,19.174c-39.824-22.124-47.198-61.948-38.349-72.273
	s-11.8-13.275-2.95-47.199s45.724-78.173,45.724-78.173s-53.098-63.423-39.824-113.572
	C1641.597,208.332,1685.845,167.033,1685.845,167.033z"/>
<path style="fill:#F9F7EF;" d="M176.967,453.174c0,0-28.024-26.549,14.75-44.249s85.547-39.824,135.696-39.824
	s61.948-22.124,72.273,0c10.325,22.124,5.9,78.173-28.024,101.772c-33.924,23.599-72.273,41.299-113.572,39.824
	S176.967,453.174,176.967,453.174z"/>
<path style="fill:#F9F7EF;" d="M404.11,501.848c0,0,23.599-76.698,73.748-92.922c50.148-16.225,154.87-75.223,172.57-57.523
	c17.699,17.699-82.597,92.922-66.373,92.922c16.225,0,60.473-30.974,57.523-8.85c-2.95,22.124-53.098,33.924-38.349,47.199
	s22.124-16.225,30.974,0c8.85,16.224-5.9,60.473-60.473,58.998c-54.573-1.475-112.097,8.85-138.646-8.85
	C408.535,515.122,404.11,501.848,404.11,501.848z"/>
<path style="fill:#F9F7EF;" d="M734.5,528.397c0,0,22.124-112.097,101.772-122.421c79.648-10.325,87.022-30.974,92.922-10.325
	c5.9,20.649-50.148,53.098-54.573,67.848s-7.375,35.399-29.499,54.573c-22.124,19.174-35.399,29.499-72.273,25.074
	C735.974,538.722,734.5,528.397,734.5,528.397z"/>
<path style="fill:#F9F7EF;" d="M558.98,248.156c0,0,141.596-122.421,165.195-112.097c23.599,10.325-44.249,66.373-23.599,67.848
	c20.649,1.475,33.924-36.874,45.724-11.8s-32.449,100.297-84.072,103.247c-51.623,2.95-110.622-7.375-109.147-20.649
	C554.555,261.43,558.98,248.156,558.98,248.156z"/>
<path style="fill:#F9F7EF;" d="M908.544,302.729c0,0,25.074-36.874,45.724-36.874s38.349-14.75,33.924,0
	c-4.425,14.75-25.074,20.649-28.024,36.874c-2.95,16.224-33.924,35.399-41.299,30.974
	C911.494,329.278,908.544,302.729,908.544,302.729z"/>
<path style="fill:#F9F7EF;" d="M957.218,510.697c0,0,29.499-69.323,79.648-75.223c50.148-5.9,67.848,13.275,87.022,0
	c19.174-13.275,53.098-47.199,100.297-38.349s84.072,25.074,69.323,44.249s-26.549,19.174-26.549,39.824
	c0,20.649-7.375,75.223-58.998,75.223s-60.473,0-60.473,0s-48.674,17.699-76.698,8.85c-28.024-8.85-58.998-8.85-82.598-16.224
	C964.593,541.672,957.218,510.697,957.218,510.697z"/>
<path style="fill:#F9F7EF;" d="M1452.803,220.131c23.714-36.745,134.221-67.848,169.62-42.774s-13.275,50.148,0,51.623
	c13.275,1.475,20.649-17.699,30.974,0c10.325,17.699-25.074,79.648-82.598,94.397c-57.523,14.75-147.495,0-146.021-19.174
	s14.75-23.599,20.649-36.874C1451.328,254.055,1446.327,230.166,1452.803,220.131z"/>
<path style="fill:#F9F7EF;" d="M1707.97,172.933c0,0,25.074-28.024,35.399-22.124c10.325,5.9,29.499,17.699,13.275,22.124
	s-42.774,19.174-48.674,13.275C1702.07,180.308,1707.97,172.933,1707.97,172.933z"/>
<path style="fill:#F9F7EF;" d="M1648.972,487.098c0,0,1.475-57.523,30.974-61.948c29.499-4.425,53.098-25.074,67.848-7.375
	c14.75,17.699,23.599,30.974-5.9,47.199c-29.499,16.225,1.475,16.225-36.874,22.124
	C1666.671,492.998,1648.972,487.098,1648.972,487.098z"/>
<path style="fill:#F9F7EF;" d="M1632.747,556.421c0,0,0-25.074,30.974-30.974c30.974-5.9,30.974-10.325,64.898-14.75
	c33.924-4.425,29.499-16.224,56.048,0c26.549,16.225,0,8.85,64.898,25.074c64.898,16.224,72.273,5.9,64.898,26.549
	c-7.375,20.649-20.649,32.449-72.273,23.599s-75.223-23.599-107.672-25.074c-32.449-1.475-79.648,11.8-89.972,7.375
	C1634.222,563.796,1632.747,556.421,1632.747,556.421z"/>
<path style="fill:#F9F7EF;" d="M1324.481,568.221c0,0-22.124-47.199,0-57.523c22.124-10.325,76.698-22.124,84.073-39.824
	c7.375-17.699,26.549-85.547,64.898-92.922c38.349-7.375,72.273-44.249,88.497-19.174s-28.024,48.674-8.85,57.523
	c19.174,8.85,11.8-17.699,30.974-5.9c19.174,11.8,30.974,16.225,26.549,35.399c-4.425,19.174-26.549,35.399-16.225,44.249
	c10.325,8.85,19.174,25.074,7.375,41.299c-11.8,16.224-5.9,39.824-35.399,42.774c-29.499,2.95-129.796,5.9-150.445,0
	s-7.375,2.95-45.724,2.95C1331.856,577.07,1324.481,568.221,1324.481,568.221z"/>
<path style="fill:#F9F7EF;" d="M2228.629,62.311c0,0,51.623-57.523,75.223-57.523s17.699,23.599,16.224,28.024
	c-1.475,4.425,51.624-48.674,66.373-28.024s-75.223,119.471-107.672,129.796c-32.449,10.325-70.798,41.299-85.547,22.124
	S2228.629,62.311,2228.629,62.311z"/>
<path style="fill:#F9F7EF;" d="M1644.547,457.599c0,0-42.774-66.373,44.249-94.397s123.896-11.8,123.896-11.8
	s101.772-72.273,138.646-51.623c36.874,20.649-11.8,51.623-11.8,51.623s54.573-29.499,67.848-16.224
	c13.275,13.275-13.275,41.299-13.275,41.299s39.824-33.924,51.623-29.499c11.8,4.425,11.8,22.124,11.8,22.124
	s10.324-13.275,20.649-5.9s-22.124,61.948-22.124,61.948s35.399-32.449,50.148-32.449s0,56.048,0,56.048
	s148.97-159.295,196.169-162.245c47.199-2.95,56.048,5.9,16.225,41.299s-69.323,109.147-69.323,109.147s66.373-56.048,73.748-39.824
	c7.375,16.225-50.148,94.397-50.148,94.397s57.523-64.898,70.798-35.399c13.275,29.499-60.473,89.972-81.123,94.397
	s-85.547,75.223-138.646,57.523s-29.499-54.573-29.499-54.573s-22.124,69.323-78.173,39.824
	c-56.048-29.499-47.199-69.323-47.199-69.323s-19.174,75.223-61.948,73.748c-42.774-1.475-98.822-53.098-98.822-53.098
	s-113.572,41.299-147.495,25.074s-39.824-67.848-26.549-78.173C1647.497,481.198,1644.547,457.599,1644.547,457.599z"/>
<path style="fill:#F9F7EF;" d="M2955.781,175.883c0,0-44.249-57.523,0-58.998c44.249-1.475,44.249,5.9,44.249,5.9
	s19.174-70.798,48.674-56.048c29.499,14.75,29.499,14.75,29.499,14.75s23.599-82.597,56.048-42.774
	c32.449,39.824,5.9,63.423,5.9,63.423s16.225-14.75,20.649,11.8s-23.599,42.774-23.599,42.774s17.699-7.375,16.225,5.9
	c-1.475,13.275-26.549,36.874-26.549,36.874s-35.399,19.174-78.173,13.275c-42.774-5.9-72.273,8.85-82.598-7.375
	S2955.781,175.883,2955.781,175.883z"/>
<path style="fill:#F9F7EF;" d="M3308.296,175.883c0,0,13.274-48.674,32.449-45.724c19.174,2.95,63.423-36.874,73.748-26.549
	c10.325,10.325,0,69.323-20.649,85.547c-20.649,16.225-78.173,29.499-85.547,8.85S3308.296,175.883,3308.296,175.883z"/>
<path style="fill:#F9F7EF;" d="M3449.891,155.233c0,0,107.672-72.273,120.947-53.098c13.274,19.174,0,25.074,0,25.074
	s54.573-30.974,54.573-5.9s-30.974,36.874-14.75,41.299c16.224,4.425,22.124-22.124,28.024,0c5.9,22.124,7.375,32.449,7.375,32.449
	s35.399-38.349,60.473-23.599c25.074,14.75,10.325,64.898,22.124,69.323s42.774-23.599,47.198,0
	c4.425,23.599-51.623,67.848-51.623,67.848s35.399-1.475,13.274,26.549c-22.124,28.024-50.148,39.824-50.148,39.824
	s14.75-19.174,28.024,0c13.275,19.174-8.85,41.299-8.85,41.299s47.198,2.95,26.549,22.124s-94.397,16.225-98.822,28.024
	c-4.425,11.8-115.046,94.397-151.92,78.173c-36.874-16.225-13.275-47.199-32.449-41.299c-19.174,5.9-76.698,58.998-109.146,42.774
	c-32.449-16.224-35.399-45.724-35.399-45.724s-54.573,48.674-67.848,13.275c-13.275-35.399,0-50.148,0-50.148
	s-29.499,23.599-30.974-8.85s76.698-119.471,84.073-119.471s-38.349-25.074,0-48.674c38.349-23.599,76.698-47.199,88.497-41.299
	C3390.893,251.105,3449.891,155.233,3449.891,155.233z"/>
<path style="fill:#F9F7EF;" d="M2969.056,448.749c0-4.425,33.924-128.321,106.197-151.92c72.273-23.599,89.972-54.573,94.397-25.074
	c4.425,29.499-87.022,143.071-87.022,143.071s81.123-58.998,78.173-16.224s-92.922,125.371-126.846,137.171
	c-33.924,11.8-61.948,45.724-84.072,22.124C2927.758,534.297,2969.056,448.749,2969.056,448.749z"/>
<path style="fill:#F9F7EF;" d="M3390.893,428.1c0,0-19.175,26.549-20.649,13.275s30.974-61.948,48.674-61.948
	s25.074-33.924,35.399-16.224s-56.048,109.147-67.848,104.722C3374.669,463.499,3390.893,428.1,3390.893,428.1z"/>
<path style="fill:#F9F7EF;" d="M3474.966,363.202c0,0,32.449-39.824,45.723-39.824c13.275,0,17.699-30.974,36.874-17.699
	c19.174,13.275-10.325,48.674-29.499,57.523c-19.174,8.85-39.824,19.174-44.249,13.275S3474.966,363.202,3474.966,363.202z"/>
<path style="fill:#F9F7EF;" d="M3592.962,377.952c0,0,51.623-60.473,66.373-53.098c14.75,7.375,0,47.199-22.124,53.098
	S3591.487,395.651,3592.962,377.952z"/>
<path style="fill:#F9F7EF;" d="M3628.361,413.35c0,0,25.074-33.924,36.874-26.549s10.325,28.024-7.375,32.449
	S3628.361,413.35,3628.361,413.35z"/>
<path style="fill:#F9F7EF;" d="M3547.239,403.026c0,0,51.623-16.225,51.623,0c0,16.224-30.974,56.048-44.249,47.199
	s-30.974-14.75-23.599-26.549C3538.389,411.876,3547.239,403.026,3547.239,403.026z"/>
<path style="fill:#F9F7EF;" d="M2293.527,270.28c0,0,225.668-110.622,253.692-87.022c28.024,23.599,5.9,50.148,5.9,50.148
	s48.674-42.774,61.948-20.649c13.275,22.124-14.75,57.523-14.75,57.523s113.572-75.223,134.221-28.024s22.124,69.323,22.124,69.323
	s151.92-88.497,157.82-48.674c5.9,39.824,0,54.573,0,54.573s84.072-64.898,106.197-56.048c22.124,8.85,38.349,29.499,25.074,56.048
	c-13.275,26.549-58.998,176.995-95.872,203.544c-36.874,26.549-67.848,38.349-60.473,10.325c7.375-28.024,8.85-45.724,8.85-45.724
	s-36.874,70.798-69.323,56.048c-32.449-14.75-23.599-73.748-23.599-73.748s-2.95,35.399-39.824,29.499
	c-36.874-5.9-38.349-58.998-38.349-58.998s-78.173,89.972-95.872,54.573s4.425-51.623,4.425-51.623s-29.499,33.924-42.774,11.8
	c-13.274-22.124,4.425-58.998,4.425-58.998s-57.523,113.572-85.548,97.347c-28.024-16.225-11.8-60.473-11.8-60.473
	s-42.774,87.022-82.597,53.098s-4.425-120.946-4.425-120.946s-87.022,144.546-135.696,115.046
	c-48.673-29.499-16.224-103.247-16.224-103.247s-72.273,57.523-88.497,5.9S2293.527,270.28,2293.527,270.28z"/>
</svg>
